<?xml version="1.0" encoding="UTF-8" standalone="no"?>
<!DOCTYPE svg PUBLIC "-//W3C//DTD SVG 1.1//EN"
 "http://www.w3.org/Graphics/SVG/1.1/DTD/svg11.dtd">
<!-- Generated by graphviz version 13.1.0 (20250701.0955)
 -->
<!-- Title: src/driver_hdc2080.h Pages: 1 -->
<svg width="910pt" height="232pt"
 viewBox="0.00 0.00 910.00 232.00" xmlns="http://www.w3.org/2000/svg" xmlns:xlink="http://www.w3.org/1999/xlink">
<g id="graph0" class="graph" transform="scale(1 1) rotate(0) translate(4 228)">
<title>src/driver_hdc2080.h</title>
<!-- Node1 -->
<g id="Node000001" class="node">
<title>Node1</title>
<g id="a_Node000001"><a xlink:title="driver hdc2080 header file">
<polygon fill="#999999" stroke="#666666" points="600.25,-224 493.5,-224 493.5,-204 600.25,-204 600.25,-224"/>
<text xml:space="preserve" text-anchor="middle" x="546.88" y="-210.5" font-family="Helvetica,sans-Serif" font-size="10.00">src/driver_hdc2080.h</text>
</a>
</g>
</g>
<!-- Node2 -->
<g id="Node000002" class="node">
<title>Node2</title>
<g id="a_Node000002"><a xlink:href="driver__hdc2080__interface_8h.html" target="_top" xlink:title="driver hdc2080 interface header file">
<polygon fill="white" stroke="#666666" points="542.12,-168 419.62,-168 419.62,-136 542.12,-136 542.12,-168"/>
<text xml:space="preserve" text-anchor="start" x="427.62" y="-154.5" font-family="Helvetica,sans-Serif" font-size="10.00">interface/driver_hdc2080</text>
<text xml:space="preserve" text-anchor="middle" x="480.88" y="-142.5" font-family="Helvetica,sans-Serif" font-size="10.00">_interface.h</text>
</a>
</g>
</g>
<!-- Node1&#45;&gt;Node2 -->
<g id="edge1_Node000001_Node000002" class="edge">
<title>Node1&#45;&gt;Node2</title>
<g id="a_edge1_Node000001_Node000002"><a xlink:title=" ">
<path fill="none" stroke="#63b8ff" d="M528.15,-195.98C518.6,-187.29 507.07,-176.81 497.79,-168.37"/>
<polygon fill="#63b8ff" stroke="#63b8ff" points="525.69,-198.47 535.44,-202.61 530.4,-193.29 525.69,-198.47"/>
</a>
</g>
</g>
<!-- Node16 -->
<g id="Node000016" class="node">
<title>Node16</title>
<g id="a_Node000016"><a xlink:href="driver__hdc2080_8c.html" target="_top" xlink:title="driver hdc2080 source file">
<polygon fill="white" stroke="#666666" points="667.25,-162 560.5,-162 560.5,-142 667.25,-142 667.25,-162"/>
<text xml:space="preserve" text-anchor="middle" x="613.88" y="-148.5" font-family="Helvetica,sans-Serif" font-size="10.00">src/driver_hdc2080.c</text>
</a>
</g>
</g>
<!-- Node1&#45;&gt;Node16 -->
<g id="edge15_Node000001_Node000016" class="edge">
<title>Node1&#45;&gt;Node16</title>
<g id="a_edge15_Node000001_Node000016"><a xlink:title=" ">
<path fill="none" stroke="#63b8ff" d="M565.61,-196.22C577.94,-185.18 593.62,-171.14 603.7,-162.11"/>
<polygon fill="#63b8ff" stroke="#63b8ff" points="563.59,-193.34 558.47,-202.62 568.26,-198.55 563.59,-193.34"/>
</a>
</g>
</g>
<!-- Node3 -->
<g id="Node000003" class="node">
<title>Node3</title>
<g id="a_Node000003"><a xlink:href="driver__hdc2080__basic_8h.html" target="_top" xlink:title="driver hdc2080 basic header file">
<polygon fill="white" stroke="#666666" points="121.75,-100 0,-100 0,-68 121.75,-68 121.75,-100"/>
<text xml:space="preserve" text-anchor="start" x="8" y="-86.5" font-family="Helvetica,sans-Serif" font-size="10.00">example/driver_hdc2080</text>
<text xml:space="preserve" text-anchor="middle" x="60.88" y="-74.5" font-family="Helvetica,sans-Serif" font-size="10.00">_basic.h</text>
</a>
</g>
</g>
<!-- Node2&#45;&gt;Node3 -->
<g id="edge2_Node000002_Node000003" class="edge">
<title>Node2&#45;&gt;Node3</title>
<g id="a_edge2_Node000002_Node000003"><a xlink:title=" ">
<path fill="none" stroke="#63b8ff" d="M408.31,-141.86C337.37,-132.58 226.39,-117.17 130.88,-100 127.94,-99.47 124.94,-98.91 121.91,-98.33"/>
<polygon fill="#63b8ff" stroke="#63b8ff" points="407.48,-145.28 417.85,-143.1 408.38,-138.34 407.48,-145.28"/>
</a>
</g>
</g>
<!-- Node5 -->
<g id="Node000005" class="node">
<title>Node5</title>
<g id="a_Node000005"><a xlink:href="driver__hdc2080__interrupt_8h.html" target="_top" xlink:title="driver hdc2080 interrupt header file">
<polygon fill="white" stroke="#666666" points="261.75,-100 140,-100 140,-68 261.75,-68 261.75,-100"/>
<text xml:space="preserve" text-anchor="start" x="148" y="-86.5" font-family="Helvetica,sans-Serif" font-size="10.00">example/driver_hdc2080</text>
<text xml:space="preserve" text-anchor="middle" x="200.88" y="-74.5" font-family="Helvetica,sans-Serif" font-size="10.00">_interrupt.h</text>
</a>
</g>
</g>
<!-- Node2&#45;&gt;Node5 -->
<g id="edge4_Node000002_Node000005" class="edge">
<title>Node2&#45;&gt;Node5</title>
<g id="a_edge4_Node000002_Node000005"><a xlink:title=" ">
<path fill="none" stroke="#63b8ff" d="M408.47,-133.93C363.11,-123.24 305.27,-109.61 262.18,-99.45"/>
<polygon fill="#63b8ff" stroke="#63b8ff" points="407.42,-137.28 417.95,-136.17 409.02,-130.47 407.42,-137.28"/>
</a>
</g>
</g>
<!-- Node7 -->
<g id="Node000007" class="node">
<title>Node7</title>
<g id="a_Node000007"><a xlink:href="driver__hdc2080__shot_8h.html" target="_top" xlink:title="driver hdc2080 shot header file">
<polygon fill="white" stroke="#666666" points="401.75,-100 280,-100 280,-68 401.75,-68 401.75,-100"/>
<text xml:space="preserve" text-anchor="start" x="288" y="-86.5" font-family="Helvetica,sans-Serif" font-size="10.00">example/driver_hdc2080</text>
<text xml:space="preserve" text-anchor="middle" x="340.88" y="-74.5" font-family="Helvetica,sans-Serif" font-size="10.00">_shot.h</text>
</a>
</g>
</g>
<!-- Node2&#45;&gt;Node7 -->
<g id="edge6_Node000002_Node000007" class="edge">
<title>Node2&#45;&gt;Node7</title>
<g id="a_edge6_Node000002_Node000007"><a xlink:title=" ">
<path fill="none" stroke="#63b8ff" d="M437.9,-130.74C417.16,-120.96 392.68,-109.42 373.49,-100.38"/>
<polygon fill="#63b8ff" stroke="#63b8ff" points="436.14,-133.78 446.68,-134.88 439.13,-127.45 436.14,-133.78"/>
</a>
</g>
</g>
<!-- Node9 -->
<g id="Node000009" class="node">
<title>Node9</title>
<g id="a_Node000009"><a xlink:href="driver__hdc2080__interface__template_8c.html" target="_top" xlink:title="driver hdc2080 interface template source file">
<polygon fill="white" stroke="#666666" points="542.12,-100 419.62,-100 419.62,-68 542.12,-68 542.12,-100"/>
<text xml:space="preserve" text-anchor="start" x="427.62" y="-86.5" font-family="Helvetica,sans-Serif" font-size="10.00">interface/driver_hdc2080</text>
<text xml:space="preserve" text-anchor="middle" x="480.88" y="-74.5" font-family="Helvetica,sans-Serif" font-size="10.00">_interface_template.c</text>
</a>
</g>
</g>
<!-- Node2&#45;&gt;Node9 -->
<g id="edge8_Node000002_Node000009" class="edge">
<title>Node2&#45;&gt;Node9</title>
<g id="a_edge8_Node000002_Node000009"><a xlink:title=" ">
<path fill="none" stroke="#63b8ff" d="M480.88,-124.31C480.88,-116.12 480.88,-107.38 480.88,-100.22"/>
<polygon fill="#63b8ff" stroke="#63b8ff" points="477.38,-124.18 480.88,-134.18 484.38,-124.18 477.38,-124.18"/>
</a>
</g>
</g>
<!-- Node10 -->
<g id="Node000010" class="node">
<title>Node10</title>
<g id="a_Node000010"><a xlink:href="driver__hdc2080__interrupt__test_8h.html" target="_top" xlink:title="driver hdc2080 interrupt test header file">
<polygon fill="white" stroke="#666666" points="661.62,-100 560.12,-100 560.12,-68 661.62,-68 661.62,-100"/>
<text xml:space="preserve" text-anchor="start" x="568.12" y="-86.5" font-family="Helvetica,sans-Serif" font-size="10.00">test/driver_hdc2080</text>
<text xml:space="preserve" text-anchor="middle" x="610.88" y="-74.5" font-family="Helvetica,sans-Serif" font-size="10.00">_interrupt_test.h</text>
</a>
</g>
</g>
<!-- Node2&#45;&gt;Node10 -->
<g id="edge9_Node000002_Node000010" class="edge">
<title>Node2&#45;&gt;Node10</title>
<g id="a_edge9_Node000002_Node000010"><a xlink:title=" ">
<path fill="none" stroke="#63b8ff" d="M521.57,-130.34C540.66,-120.65 563.02,-109.3 580.59,-100.38"/>
<polygon fill="#63b8ff" stroke="#63b8ff" points="520.04,-127.19 512.7,-134.84 523.2,-133.43 520.04,-127.19"/>
</a>
</g>
</g>
<!-- Node12 -->
<g id="Node000012" class="node">
<title>Node12</title>
<g id="a_Node000012"><a xlink:href="driver__hdc2080__read__test_8h.html" target="_top" xlink:title="driver hdc2080 read test header file">
<polygon fill="white" stroke="#666666" points="781.62,-100 680.12,-100 680.12,-68 781.62,-68 781.62,-100"/>
<text xml:space="preserve" text-anchor="start" x="688.12" y="-86.5" font-family="Helvetica,sans-Serif" font-size="10.00">test/driver_hdc2080</text>
<text xml:space="preserve" text-anchor="middle" x="730.88" y="-74.5" font-family="Helvetica,sans-Serif" font-size="10.00">_read_test.h</text>
</a>
</g>
</g>
<!-- Node2&#45;&gt;Node12 -->
<g id="edge11_Node000002_Node000012" class="edge">
<title>Node2&#45;&gt;Node12</title>
<g id="a_edge11_Node000002_Node000012"><a xlink:title=" ">
<path fill="none" stroke="#63b8ff" d="M550.5,-132.62C591.53,-121.79 642.53,-108.32 679.82,-98.48"/>
<polygon fill="#63b8ff" stroke="#63b8ff" points="549.73,-129.2 540.95,-135.14 551.51,-135.97 549.73,-129.2"/>
</a>
</g>
</g>
<!-- Node14 -->
<g id="Node000014" class="node">
<title>Node14</title>
<g id="a_Node000014"><a xlink:href="driver__hdc2080__register__test_8h.html" target="_top" xlink:title="driver hdc2080 register test header file">
<polygon fill="white" stroke="#666666" points="901.62,-100 800.12,-100 800.12,-68 901.62,-68 901.62,-100"/>
<text xml:space="preserve" text-anchor="start" x="808.12" y="-86.5" font-family="Helvetica,sans-Serif" font-size="10.00">test/driver_hdc2080</text>
<text xml:space="preserve" text-anchor="middle" x="850.88" y="-74.5" font-family="Helvetica,sans-Serif" font-size="10.00">_register_test.h</text>
</a>
</g>
</g>
<!-- Node2&#45;&gt;Node14 -->
<g id="edge13_Node000002_Node000014" class="edge">
<title>Node2&#45;&gt;Node14</title>
<g id="a_edge13_Node000002_Node000014"><a xlink:title=" ">
<path fill="none" stroke="#63b8ff" d="M553.6,-135.77C659.52,-117.14 689.03,-120.35 790.88,-100 793.82,-99.41 796.84,-98.77 799.89,-98.1"/>
<polygon fill="#63b8ff" stroke="#63b8ff" points="553.12,-132.3 543.9,-137.5 554.35,-139.19 553.12,-132.3"/>
</a>
</g>
</g>
<!-- Node4 -->
<g id="Node000004" class="node">
<title>Node4</title>
<g id="a_Node000004"><a xlink:href="driver__hdc2080__basic_8c.html" target="_top" xlink:title="driver hdc2080 basic source file">
<polygon fill="white" stroke="#666666" points="121.75,-32 0,-32 0,0 121.75,0 121.75,-32"/>
<text xml:space="preserve" text-anchor="start" x="8" y="-18.5" font-family="Helvetica,sans-Serif" font-size="10.00">example/driver_hdc2080</text>
<text xml:space="preserve" text-anchor="middle" x="60.88" y="-6.5" font-family="Helvetica,sans-Serif" font-size="10.00">_basic.c</text>
</a>
</g>
</g>
<!-- Node3&#45;&gt;Node4 -->
<g id="edge3_Node000003_Node000004" class="edge">
<title>Node3&#45;&gt;Node4</title>
<g id="a_edge3_Node000003_Node000004"><a xlink:title=" ">
<path fill="none" stroke="#63b8ff" d="M60.88,-56.31C60.88,-48.12 60.88,-39.38 60.88,-32.22"/>
<polygon fill="#63b8ff" stroke="#63b8ff" points="57.38,-56.18 60.88,-66.18 64.38,-56.18 57.38,-56.18"/>
</a>
</g>
</g>
<!-- Node6 -->
<g id="Node000006" class="node">
<title>Node6</title>
<g id="a_Node000006"><a xlink:href="driver__hdc2080__interrupt_8c.html" target="_top" xlink:title="driver hdc2080 interrupt source file">
<polygon fill="white" stroke="#666666" points="261.75,-32 140,-32 140,0 261.75,0 261.75,-32"/>
<text xml:space="preserve" text-anchor="start" x="148" y="-18.5" font-family="Helvetica,sans-Serif" font-size="10.00">example/driver_hdc2080</text>
<text xml:space="preserve" text-anchor="middle" x="200.88" y="-6.5" font-family="Helvetica,sans-Serif" font-size="10.00">_interrupt.c</text>
</a>
</g>
</g>
<!-- Node5&#45;&gt;Node6 -->
<g id="edge5_Node000005_Node000006" class="edge">
<title>Node5&#45;&gt;Node6</title>
<g id="a_edge5_Node000005_Node000006"><a xlink:title=" ">
<path fill="none" stroke="#63b8ff" d="M200.88,-56.31C200.88,-48.12 200.88,-39.38 200.88,-32.22"/>
<polygon fill="#63b8ff" stroke="#63b8ff" points="197.38,-56.18 200.88,-66.18 204.38,-56.18 197.38,-56.18"/>
</a>
</g>
</g>
<!-- Node8 -->
<g id="Node000008" class="node">
<title>Node8</title>
<g id="a_Node000008"><a xlink:href="driver__hdc2080__shot_8c.html" target="_top" xlink:title="driver hdc2080 shot source file">
<polygon fill="white" stroke="#666666" points="401.75,-32 280,-32 280,0 401.75,0 401.75,-32"/>
<text xml:space="preserve" text-anchor="start" x="288" y="-18.5" font-family="Helvetica,sans-Serif" font-size="10.00">example/driver_hdc2080</text>
<text xml:space="preserve" text-anchor="middle" x="340.88" y="-6.5" font-family="Helvetica,sans-Serif" font-size="10.00">_shot.c</text>
</a>
</g>
</g>
<!-- Node7&#45;&gt;Node8 -->
<g id="edge7_Node000007_Node000008" class="edge">
<title>Node7&#45;&gt;Node8</title>
<g id="a_edge7_Node000007_Node000008"><a xlink:title=" ">
<path fill="none" stroke="#63b8ff" d="M340.88,-56.31C340.88,-48.12 340.88,-39.38 340.88,-32.22"/>
<polygon fill="#63b8ff" stroke="#63b8ff" points="337.38,-56.18 340.88,-66.18 344.38,-56.18 337.38,-56.18"/>
</a>
</g>
</g>
<!-- Node11 -->
<g id="Node000011" class="node">
<title>Node11</title>
<g id="a_Node000011"><a xlink:href="driver__hdc2080__interrupt__test_8c.html" target="_top" xlink:title="driver hdc2080 interrupt test source file">
<polygon fill="white" stroke="#666666" points="661.62,-32 560.12,-32 560.12,0 661.62,0 661.62,-32"/>
<text xml:space="preserve" text-anchor="start" x="568.12" y="-18.5" font-family="Helvetica,sans-Serif" font-size="10.00">test/driver_hdc2080</text>
<text xml:space="preserve" text-anchor="middle" x="610.88" y="-6.5" font-family="Helvetica,sans-Serif" font-size="10.00">_interrupt_test.c</text>
</a>
</g>
</g>
<!-- Node10&#45;&gt;Node11 -->
<g id="edge10_Node000010_Node000011" class="edge">
<title>Node10&#45;&gt;Node11</title>
<g id="a_edge10_Node000010_Node000011"><a xlink:title=" ">
<path fill="none" stroke="#63b8ff" d="M610.88,-56.31C610.88,-48.12 610.88,-39.38 610.88,-32.22"/>
<polygon fill="#63b8ff" stroke="#63b8ff" points="607.38,-56.18 610.88,-66.18 614.38,-56.18 607.38,-56.18"/>
</a>
</g>
</g>
<!-- Node13 -->
<g id="Node000013" class="node">
<title>Node13</title>
<g id="a_Node000013"><a xlink:href="driver__hdc2080__read__test_8c.html" target="_top" xlink:title="driver hdc2080 read test source file">
<polygon fill="white" stroke="#666666" points="781.62,-32 680.12,-32 680.12,0 781.62,0 781.62,-32"/>
<text xml:space="preserve" text-anchor="start" x="688.12" y="-18.5" font-family="Helvetica,sans-Serif" font-size="10.00">test/driver_hdc2080</text>
<text xml:space="preserve" text-anchor="middle" x="730.88" y="-6.5" font-family="Helvetica,sans-Serif" font-size="10.00">_read_test.c</text>
</a>
</g>
</g>
<!-- Node12&#45;&gt;Node13 -->
<g id="edge12_Node000012_Node000013" class="edge">
<title>Node12&#45;&gt;Node13</title>
<g id="a_edge12_Node000012_Node000013"><a xlink:title=" ">
<path fill="none" stroke="#63b8ff" d="M730.88,-56.31C730.88,-48.12 730.88,-39.38 730.88,-32.22"/>
<polygon fill="#63b8ff" stroke="#63b8ff" points="727.38,-56.18 730.88,-66.18 734.38,-56.18 727.38,-56.18"/>
</a>
</g>
</g>
<!-- Node15 -->
<g id="Node000015" class="node">
<title>Node15</title>
<g id="a_Node000015"><a xlink:href="driver__hdc2080__register__test_8c.html" target="_top" xlink:title="driver hdc2080 register test source file">
<polygon fill="white" stroke="#666666" points="901.62,-32 800.12,-32 800.12,0 901.62,0 901.62,-32"/>
<text xml:space="preserve" text-anchor="start" x="808.12" y="-18.5" font-family="Helvetica,sans-Serif" font-size="10.00">test/driver_hdc2080</text>
<text xml:space="preserve" text-anchor="middle" x="850.88" y="-6.5" font-family="Helvetica,sans-Serif" font-size="10.00">_register_test.c</text>
</a>
</g>
</g>
<!-- Node14&#45;&gt;Node15 -->
<g id="edge14_Node000014_Node000015" class="edge">
<title>Node14&#45;&gt;Node15</title>
<g id="a_edge14_Node000014_Node000015"><a xlink:title=" ">
<path fill="none" stroke="#63b8ff" d="M850.88,-56.31C850.88,-48.12 850.88,-39.38 850.88,-32.22"/>
<polygon fill="#63b8ff" stroke="#63b8ff" points="847.38,-56.18 850.88,-66.18 854.38,-56.18 847.38,-56.18"/>
</a>
</g>
</g>
</g>
</svg>
