<?xml version="1.0" encoding="UTF-8" standalone="no"?>
<!DOCTYPE svg PUBLIC "-//W3C//DTD SVG 1.1//EN"
 "http://www.w3.org/Graphics/SVG/1.1/DTD/svg11.dtd">
<!-- Generated by graphviz version 13.1.0 (20250701.0955)
 -->
<!-- Title: hdc2080_shot_get_humidity_max Pages: 1 -->
<svg width="343pt" height="78pt"
 viewBox="0.00 0.00 343.00 78.00" xmlns="http://www.w3.org/2000/svg" xmlns:xlink="http://www.w3.org/1999/xlink">
<g id="graph0" class="graph" transform="scale(1 1) rotate(0) translate(4 74)">
<title>hdc2080_shot_get_humidity_max</title>
<!-- Node1 -->
<g id="Node000001" class="node">
<title>Node1</title>
<g id="a_Node000001"><a xlink:title="shot get humidity max">
<polygon fill="#999999" stroke="#666666" points="161.5,-48 0,-48 0,-28 161.5,-28 161.5,-48"/>
<text xml:space="preserve" text-anchor="middle" x="80.75" y="-34.5" font-family="Helvetica,sans-Serif" font-size="10.00">hdc2080_shot_get_humidity_max</text>
</a>
</g>
</g>
<!-- Node2 -->
<g id="Node000002" class="node">
<title>Node2</title>
<g id="a_Node000002"><a xlink:href="group__hdc2080__basic__driver.html#ga752dfd3ed10c70318c3b9bd888348a41" target="_top" xlink:title="get humidity max">
<polygon fill="white" stroke="#666666" points="335,-70 197.5,-70 197.5,-50 335,-50 335,-70"/>
<text xml:space="preserve" text-anchor="middle" x="266.25" y="-56.5" font-family="Helvetica,sans-Serif" font-size="10.00">hdc2080_get_humidity_max</text>
</a>
</g>
</g>
<!-- Node1&#45;&gt;Node2 -->
<g id="edge1_Node000001_Node000002" class="edge">
<title>Node1&#45;&gt;Node2</title>
<g id="a_edge1_Node000001_Node000002"><a xlink:title=" ">
<path fill="none" stroke="#63b8ff" d="M161.97,-47.62C169.97,-48.58 178.08,-49.55 186.07,-50.51"/>
<polygon fill="#63b8ff" stroke="#63b8ff" points="185.4,-53.95 195.74,-51.67 186.23,-47 185.4,-53.95"/>
</a>
</g>
</g>
<!-- Node3 -->
<g id="Node000003" class="node">
<title>Node3</title>
<g id="a_Node000003"><a xlink:href="group__hdc2080__basic__driver.html#ga402f6becaa8b6006da27d04788a55aa2" target="_top" xlink:title="convert the register raw data to the humidity">
<polygon fill="white" stroke="#666666" points="332.38,-32 200.12,-32 200.12,0 332.38,0 332.38,-32"/>
<text xml:space="preserve" text-anchor="start" x="208.12" y="-18.5" font-family="Helvetica,sans-Serif" font-size="10.00">hdc2080_humidity_convert</text>
<text xml:space="preserve" text-anchor="middle" x="266.25" y="-6.5" font-family="Helvetica,sans-Serif" font-size="10.00">_to_data</text>
</a>
</g>
</g>
<!-- Node1&#45;&gt;Node3 -->
<g id="edge2_Node000001_Node000003" class="edge">
<title>Node1&#45;&gt;Node3</title>
<g id="a_edge2_Node000001_Node000003"><a xlink:title=" ">
<path fill="none" stroke="#63b8ff" d="M161.97,-28.38C170.75,-27.33 179.68,-26.26 188.42,-25.21"/>
<polygon fill="#63b8ff" stroke="#63b8ff" points="188.76,-28.7 198.28,-24.03 187.93,-21.74 188.76,-28.7"/>
</a>
</g>
</g>
</g>
</svg>
