<?xml version="1.0" encoding="UTF-8" standalone="no"?>
<!DOCTYPE svg PUBLIC "-//W3C//DTD SVG 1.1//EN"
 "http://www.w3.org/Graphics/SVG/1.1/DTD/svg11.dtd">
<!-- Generated by graphviz version 13.1.0 (20250701.0955)
 -->
<!-- Title: hdc2080_shot_get_temperature_max Pages: 1 -->
<svg width="373pt" height="78pt"
 viewBox="0.00 0.00 373.00 78.00" xmlns="http://www.w3.org/2000/svg" xmlns:xlink="http://www.w3.org/1999/xlink">
<g id="graph0" class="graph" transform="scale(1 1) rotate(0) translate(4 74)">
<title>hdc2080_shot_get_temperature_max</title>
<!-- Node1 -->
<g id="Node000001" class="node">
<title>Node1</title>
<g id="a_Node000001"><a xlink:title="shot get temperature max">
<polygon fill="#999999" stroke="#666666" points="176.5,-48 0,-48 0,-28 176.5,-28 176.5,-48"/>
<text xml:space="preserve" text-anchor="middle" x="88.25" y="-34.5" font-family="Helvetica,sans-Serif" font-size="10.00">hdc2080_shot_get_temperature_max</text>
</a>
</g>
</g>
<!-- Node2 -->
<g id="Node000002" class="node">
<title>Node2</title>
<g id="a_Node000002"><a xlink:href="group__hdc2080__basic__driver.html#gabfcddff4da3ebcfbb90df6e3436a1fcc" target="_top" xlink:title="get temperature max">
<polygon fill="white" stroke="#666666" points="365,-70 212.5,-70 212.5,-50 365,-50 365,-70"/>
<text xml:space="preserve" text-anchor="middle" x="288.75" y="-56.5" font-family="Helvetica,sans-Serif" font-size="10.00">hdc2080_get_temperature_max</text>
</a>
</g>
</g>
<!-- Node1&#45;&gt;Node2 -->
<g id="edge1_Node000001_Node000002" class="edge">
<title>Node1&#45;&gt;Node2</title>
<g id="a_edge1_Node000001_Node000002"><a xlink:title=" ">
<path fill="none" stroke="#63b8ff" d="M176.89,-47.71C184.87,-48.6 192.95,-49.49 200.92,-50.38"/>
<polygon fill="#63b8ff" stroke="#63b8ff" points="200.26,-53.82 210.59,-51.45 201.03,-46.87 200.26,-53.82"/>
</a>
</g>
</g>
<!-- Node3 -->
<g id="Node000003" class="node">
<title>Node3</title>
<g id="a_Node000003"><a xlink:href="group__hdc2080__basic__driver.html#ga3a376398652021a38a3e99e5e812ed2d" target="_top" xlink:title="convert the register raw data to the temperature">
<polygon fill="white" stroke="#666666" points="343.62,-32 233.88,-32 233.88,0 343.62,0 343.62,-32"/>
<text xml:space="preserve" text-anchor="start" x="241.88" y="-18.5" font-family="Helvetica,sans-Serif" font-size="10.00">hdc2080_temperature</text>
<text xml:space="preserve" text-anchor="middle" x="288.75" y="-6.5" font-family="Helvetica,sans-Serif" font-size="10.00">_convert_to_data</text>
</a>
</g>
</g>
<!-- Node1&#45;&gt;Node3 -->
<g id="edge2_Node000001_Node000003" class="edge">
<title>Node1&#45;&gt;Node3</title>
<g id="a_edge2_Node000001_Node000003"><a xlink:title=" ">
<path fill="none" stroke="#63b8ff" d="M176.89,-28.29C192.14,-26.6 207.75,-24.87 222.27,-23.26"/>
<polygon fill="#63b8ff" stroke="#63b8ff" points="222.59,-26.74 232.14,-22.16 221.82,-19.79 222.59,-26.74"/>
</a>
</g>
</g>
</g>
</svg>
