<?xml version="1.0" encoding="UTF-8" standalone="no"?>
<!DOCTYPE svg PUBLIC "-//W3C//DTD SVG 1.1//EN"
 "http://www.w3.org/Graphics/SVG/1.1/DTD/svg11.dtd">
<!-- Generated by graphviz version 13.1.0 (20250701.0955)
 -->
<!-- Title: hdc2080_interrupt_init Pages: 1 -->
<svg width="345pt" height="1246pt"
 viewBox="0.00 0.00 345.00 1246.00" xmlns="http://www.w3.org/2000/svg" xmlns:xlink="http://www.w3.org/1999/xlink">
<g id="graph0" class="graph" transform="scale(1 1) rotate(0) translate(4 1242)">
<title>hdc2080_interrupt_init</title>
<!-- Node1 -->
<g id="Node000001" class="node">
<title>Node1</title>
<g id="a_Node000001"><a xlink:title="interrupt example init">
<polygon fill="#999999" stroke="#666666" points="111.25,-653 0,-653 0,-633 111.25,-633 111.25,-653"/>
<text xml:space="preserve" text-anchor="middle" x="55.62" y="-639.5" font-family="Helvetica,sans-Serif" font-size="10.00">hdc2080_interrupt_init</text>
</a>
</g>
</g>
<!-- Node2 -->
<g id="Node000002" class="node">
<title>Node2</title>
<g id="a_Node000002"><a xlink:href="group__hdc2080__basic__driver.html#ga2a30e99b172ed92a430c1bf08b10b49b" target="_top" xlink:title="close the chip">
<polygon fill="white" stroke="#666666" points="282.5,-1238 201.25,-1238 201.25,-1218 282.5,-1218 282.5,-1238"/>
<text xml:space="preserve" text-anchor="middle" x="241.88" y="-1224.5" font-family="Helvetica,sans-Serif" font-size="10.00">hdc2080_deinit</text>
</a>
</g>
</g>
<!-- Node1&#45;&gt;Node2 -->
<g id="edge1_Node000001_Node000002" class="edge">
<title>Node1&#45;&gt;Node2</title>
<g id="a_edge1_Node000001_Node000002"><a xlink:title=" ">
<path fill="none" stroke="#63b8ff" d="M56.74,-653.41C57.72,-723.38 66.82,-1125.16 147.25,-1209 158.25,-1220.46 174.11,-1226.01 189.67,-1228.46"/>
<polygon fill="#63b8ff" stroke="#63b8ff" points="189.04,-1231.91 199.37,-1229.56 189.83,-1224.95 189.04,-1231.91"/>
</a>
</g>
</g>
<!-- Node3 -->
<g id="Node000003" class="node">
<title>Node3</title>
<g id="a_Node000003"><a xlink:href="group__hdc2080__basic__driver.html#gabca4762ee2aa923e382a1661640b5ae9" target="_top" xlink:title="convert the humidity to the register raw data">
<polygon fill="white" stroke="#666666" points="308,-1200 175.75,-1200 175.75,-1168 308,-1168 308,-1200"/>
<text xml:space="preserve" text-anchor="start" x="183.75" y="-1186.5" font-family="Helvetica,sans-Serif" font-size="10.00">hdc2080_humidity_convert</text>
<text xml:space="preserve" text-anchor="middle" x="241.88" y="-1174.5" font-family="Helvetica,sans-Serif" font-size="10.00">_to_register</text>
</a>
</g>
</g>
<!-- Node1&#45;&gt;Node3 -->
<g id="edge2_Node000001_Node000003" class="edge">
<title>Node1&#45;&gt;Node3</title>
<g id="a_edge2_Node000001_Node000003"><a xlink:title=" ">
<path fill="none" stroke="#63b8ff" d="M56.97,-653.28C59.38,-719.08 75.81,-1081.05 147.25,-1159 152.37,-1164.58 158.58,-1168.98 165.34,-1172.42"/>
<polygon fill="#63b8ff" stroke="#63b8ff" points="163.63,-1175.5 174.2,-1176.23 166.39,-1169.06 163.63,-1175.5"/>
</a>
</g>
</g>
<!-- Node4 -->
<g id="Node000004" class="node">
<title>Node4</title>
<g id="a_Node000004"><a xlink:href="group__hdc2080__basic__driver.html#ga2bc0deeaa37c204c06c60b8cccaca717" target="_top" xlink:title="convert the humidity offset to the register raw data">
<polygon fill="white" stroke="#666666" points="303.88,-1150 179.88,-1150 179.88,-1118 303.88,-1118 303.88,-1150"/>
<text xml:space="preserve" text-anchor="start" x="187.88" y="-1136.5" font-family="Helvetica,sans-Serif" font-size="10.00">hdc2080_humidity_offset</text>
<text xml:space="preserve" text-anchor="middle" x="241.88" y="-1124.5" font-family="Helvetica,sans-Serif" font-size="10.00">_convert_to_register</text>
</a>
</g>
</g>
<!-- Node1&#45;&gt;Node4 -->
<g id="edge3_Node000001_Node000004" class="edge">
<title>Node1&#45;&gt;Node4</title>
<g id="a_edge3_Node000001_Node000004"><a xlink:title=" ">
<path fill="none" stroke="#63b8ff" d="M57.19,-653.47C60.77,-715.98 82.3,-1039.41 147.25,-1109 153.3,-1115.49 160.84,-1120.36 168.98,-1124.01"/>
<polygon fill="#63b8ff" stroke="#63b8ff" points="167.55,-1127.21 178.15,-1127.48 170.03,-1120.67 167.55,-1127.21"/>
</a>
</g>
</g>
<!-- Node5 -->
<g id="Node000005" class="node">
<title>Node5</title>
<g id="a_Node000005"><a xlink:href="group__hdc2080__basic__driver.html#ga09d3d6fbd5678c478353bec317321549" target="_top" xlink:title="initialize the chip">
<polygon fill="white" stroke="#666666" points="277.25,-1100 206.5,-1100 206.5,-1080 277.25,-1080 277.25,-1100"/>
<text xml:space="preserve" text-anchor="middle" x="241.88" y="-1086.5" font-family="Helvetica,sans-Serif" font-size="10.00">hdc2080_init</text>
</a>
</g>
</g>
<!-- Node1&#45;&gt;Node5 -->
<g id="edge4_Node000001_Node000005" class="edge">
<title>Node1&#45;&gt;Node5</title>
<g id="a_edge4_Node000001_Node000005"><a xlink:title=" ">
<path fill="none" stroke="#63b8ff" d="M57.32,-653.44C61.5,-713.03 85.23,-1009.5 147.25,-1071 159.81,-1083.45 178.15,-1088.83 195.28,-1090.86"/>
<polygon fill="#63b8ff" stroke="#63b8ff" points="194.53,-1094.31 204.78,-1091.63 195.09,-1087.34 194.53,-1094.31"/>
</a>
</g>
</g>
<!-- Node6 -->
<g id="Node000006" class="node">
<title>Node6</title>
<g id="a_Node000006"><a xlink:href="group__hdc2080__interface__driver.html#gabab830e9787f1f8d15ace2275c4ea2d1" target="_top" xlink:title="interface print format data">
<polygon fill="white" stroke="#666666" points="305.38,-1062 178.38,-1062 178.38,-1030 305.38,-1030 305.38,-1062"/>
<text xml:space="preserve" text-anchor="start" x="186.38" y="-1048.5" font-family="Helvetica,sans-Serif" font-size="10.00">hdc2080_interface_debug</text>
<text xml:space="preserve" text-anchor="middle" x="241.88" y="-1036.5" font-family="Helvetica,sans-Serif" font-size="10.00">_print</text>
</a>
</g>
</g>
<!-- Node1&#45;&gt;Node6 -->
<g id="edge5_Node000001_Node000006" class="edge">
<title>Node1&#45;&gt;Node6</title>
<g id="a_edge5_Node000001_Node000006"><a xlink:title=" ">
<path fill="none" stroke="#63b8ff" d="M57.67,-653.24C63.49,-707.99 93.43,-965.79 147.25,-1021 152.98,-1026.88 159.93,-1031.43 167.43,-1034.94"/>
<polygon fill="#63b8ff" stroke="#63b8ff" points="165.93,-1038.11 176.52,-1038.55 168.51,-1031.6 165.93,-1038.11"/>
</a>
</g>
</g>
<!-- Node7 -->
<g id="Node000007" class="node">
<title>Node7</title>
<g id="a_Node000007"><a xlink:href="group__hdc2080__interface__driver.html#ga26945853e58ff175bf91ec1850a95377" target="_top" xlink:title="interface delay ms">
<polygon fill="white" stroke="#666666" points="313.25,-1012 170.5,-1012 170.5,-992 313.25,-992 313.25,-1012"/>
<text xml:space="preserve" text-anchor="middle" x="241.88" y="-998.5" font-family="Helvetica,sans-Serif" font-size="10.00">hdc2080_interface_delay_ms</text>
</a>
</g>
</g>
<!-- Node1&#45;&gt;Node7 -->
<g id="edge6_Node000001_Node000007" class="edge">
<title>Node1&#45;&gt;Node7</title>
<g id="a_edge6_Node000001_Node000007"><a xlink:title=" ">
<path fill="none" stroke="#63b8ff" d="M57.91,-653.27C64.56,-704.9 96.77,-935.47 147.25,-983 151.02,-986.55 155.26,-989.52 159.81,-991.99"/>
<polygon fill="#63b8ff" stroke="#63b8ff" points="158.23,-995.12 168.79,-996.03 161.1,-988.73 158.23,-995.12"/>
</a>
</g>
</g>
<!-- Node8 -->
<g id="Node000008" class="node">
<title>Node8</title>
<g id="a_Node000008"><a xlink:href="group__hdc2080__interface__driver.html#ga5afcad81dedea779c0eb1549ed85a57a" target="_top" xlink:title="interface iic bus deinit">
<polygon fill="white" stroke="#666666" points="297.12,-974 186.62,-974 186.62,-942 297.12,-942 297.12,-974"/>
<text xml:space="preserve" text-anchor="start" x="194.62" y="-960.5" font-family="Helvetica,sans-Serif" font-size="10.00">hdc2080_interface_iic</text>
<text xml:space="preserve" text-anchor="middle" x="241.88" y="-948.5" font-family="Helvetica,sans-Serif" font-size="10.00">_deinit</text>
</a>
</g>
</g>
<!-- Node1&#45;&gt;Node8 -->
<g id="edge7_Node000001_Node000008" class="edge">
<title>Node1&#45;&gt;Node8</title>
<g id="a_edge7_Node000001_Node000008"><a xlink:title=" ">
<path fill="none" stroke="#63b8ff" d="M56.53,-653.26C56.7,-694.81 63.11,-852.32 147.25,-933 155.09,-940.52 164.93,-945.83 175.27,-949.58"/>
<polygon fill="#63b8ff" stroke="#63b8ff" points="174.12,-952.89 184.71,-952.5 176.18,-946.2 174.12,-952.89"/>
</a>
</g>
</g>
<!-- Node9 -->
<g id="Node000009" class="node">
<title>Node9</title>
<g id="a_Node000009"><a xlink:href="group__hdc2080__interface__driver.html#ga5203f3cde2fba6c48decc5a9d5845225" target="_top" xlink:title="interface iic bus init">
<polygon fill="white" stroke="#666666" points="306.12,-924 177.62,-924 177.62,-904 306.12,-904 306.12,-924"/>
<text xml:space="preserve" text-anchor="middle" x="241.88" y="-910.5" font-family="Helvetica,sans-Serif" font-size="10.00">hdc2080_interface_iic_init</text>
</a>
</g>
</g>
<!-- Node1&#45;&gt;Node9 -->
<g id="edge8_Node000001_Node000009" class="edge">
<title>Node1&#45;&gt;Node9</title>
<g id="a_edge8_Node000001_Node000009"><a xlink:title=" ">
<path fill="none" stroke="#63b8ff" d="M56.94,-653.36C58.72,-691.96 70.4,-828.56 147.25,-895 152.98,-899.96 159.65,-903.75 166.74,-906.63"/>
<polygon fill="#63b8ff" stroke="#63b8ff" points="165.33,-909.85 175.93,-909.76 167.59,-903.23 165.33,-909.85"/>
</a>
</g>
</g>
<!-- Node10 -->
<g id="Node000010" class="node">
<title>Node10</title>
<g id="a_Node000010"><a xlink:href="group__hdc2080__interface__driver.html#gaa6ad667b87cf54175708096ef112b487" target="_top" xlink:title="interface iic bus read">
<polygon fill="white" stroke="#666666" points="309.12,-886 174.62,-886 174.62,-866 309.12,-866 309.12,-886"/>
<text xml:space="preserve" text-anchor="middle" x="241.88" y="-872.5" font-family="Helvetica,sans-Serif" font-size="10.00">hdc2080_interface_iic_read</text>
</a>
</g>
</g>
<!-- Node1&#45;&gt;Node10 -->
<g id="edge9_Node000001_Node000010" class="edge">
<title>Node1&#45;&gt;Node10</title>
<g id="a_edge9_Node000001_Node000010"><a xlink:title=" ">
<path fill="none" stroke="#63b8ff" d="M57.69,-653.48C61.81,-688.47 80.08,-802.1 147.25,-857 152.27,-861.1 157.94,-864.39 163.94,-867.03"/>
<polygon fill="#63b8ff" stroke="#63b8ff" points="162.29,-870.15 172.88,-870.34 164.72,-863.58 162.29,-870.15"/>
</a>
</g>
</g>
<!-- Node11 -->
<g id="Node000011" class="node">
<title>Node11</title>
<g id="a_Node000011"><a xlink:href="group__hdc2080__interface__driver.html#ga1144e490957047980198de96fd706f65" target="_top" xlink:title="interface iic bus write">
<polygon fill="white" stroke="#666666" points="297.12,-848 186.62,-848 186.62,-816 297.12,-816 297.12,-848"/>
<text xml:space="preserve" text-anchor="start" x="194.62" y="-834.5" font-family="Helvetica,sans-Serif" font-size="10.00">hdc2080_interface_iic</text>
<text xml:space="preserve" text-anchor="middle" x="241.88" y="-822.5" font-family="Helvetica,sans-Serif" font-size="10.00">_write</text>
</a>
</g>
</g>
<!-- Node1&#45;&gt;Node11 -->
<g id="edge10_Node000001_Node000011" class="edge">
<title>Node1&#45;&gt;Node11</title>
<g id="a_edge10_Node000001_Node000011"><a xlink:title=" ">
<path fill="none" stroke="#63b8ff" d="M59.25,-653.32C67.18,-682.32 93.68,-765.13 147.25,-807 155.61,-813.54 165.54,-818.37 175.75,-821.94"/>
<polygon fill="#63b8ff" stroke="#63b8ff" points="174.41,-825.19 185,-824.78 176.46,-818.5 174.41,-825.19"/>
</a>
</g>
</g>
<!-- Node12 -->
<g id="Node000012" class="node">
<title>Node12</title>
<g id="a_Node000012"><a xlink:href="group__hdc2080__basic__driver.html#ga75e7c5fa9a7d42089ce880263c89b040" target="_top" xlink:title="set the iic address pin">
<polygon fill="white" stroke="#666666" points="298.62,-798 185.12,-798 185.12,-778 298.62,-778 298.62,-798"/>
<text xml:space="preserve" text-anchor="middle" x="241.88" y="-784.5" font-family="Helvetica,sans-Serif" font-size="10.00">hdc2080_set_addr_pin</text>
</a>
</g>
</g>
<!-- Node1&#45;&gt;Node12 -->
<g id="edge11_Node000001_Node000012" class="edge">
<title>Node1&#45;&gt;Node12</title>
<g id="a_edge11_Node000001_Node000012"><a xlink:title=" ">
<path fill="none" stroke="#63b8ff" d="M60.76,-653.15C71.24,-677.48 101.31,-739.31 147.25,-769 155.26,-774.18 164.39,-777.99 173.75,-780.78"/>
<polygon fill="#63b8ff" stroke="#63b8ff" points="172.74,-784.14 183.3,-783.24 174.49,-777.36 172.74,-784.14"/>
</a>
</g>
</g>
<!-- Node13 -->
<g id="Node000013" class="node">
<title>Node13</title>
<g id="a_Node000013"><a xlink:href="group__hdc2080__basic__driver.html#ga1750e125f2f21f58c18a260222313c5f" target="_top" xlink:title="set auto measurement mode">
<polygon fill="white" stroke="#666666" points="336.5,-760 147.25,-760 147.25,-740 336.5,-740 336.5,-760"/>
<text xml:space="preserve" text-anchor="middle" x="241.88" y="-746.5" font-family="Helvetica,sans-Serif" font-size="10.00">hdc2080_set_auto_measurement_mode</text>
</a>
</g>
</g>
<!-- Node1&#45;&gt;Node13 -->
<g id="edge12_Node000001_Node000013" class="edge">
<title>Node1&#45;&gt;Node13</title>
<g id="a_edge12_Node000001_Node000013"><a xlink:title=" ">
<path fill="none" stroke="#63b8ff" d="M64.02,-653.36C77.99,-672.09 110.2,-711.45 147.25,-731 150.55,-732.74 153.99,-734.32 157.53,-735.76"/>
<polygon fill="#63b8ff" stroke="#63b8ff" points="156.35,-739.05 166.94,-739.14 158.71,-732.47 156.35,-739.05"/>
</a>
</g>
</g>
<!-- Node14 -->
<g id="Node000014" class="node">
<title>Node14</title>
<g id="a_Node000014"><a xlink:href="group__hdc2080__basic__driver.html#gabc86c36cf62d3fefe8c1a11dd66c8bd6" target="_top" xlink:title="enable or disable heater">
<polygon fill="white" stroke="#666666" points="293.75,-722 190,-722 190,-702 293.75,-702 293.75,-722"/>
<text xml:space="preserve" text-anchor="middle" x="241.88" y="-708.5" font-family="Helvetica,sans-Serif" font-size="10.00">hdc2080_set_heater</text>
</a>
</g>
</g>
<!-- Node1&#45;&gt;Node14 -->
<g id="edge13_Node000001_Node000014" class="edge">
<title>Node1&#45;&gt;Node14</title>
<g id="a_edge13_Node000001_Node000014"><a xlink:title=" ">
<path fill="none" stroke="#63b8ff" d="M71.97,-653.38C89.46,-664.74 119.25,-682.71 147.25,-693 157.19,-696.65 167.99,-699.66 178.61,-702.13"/>
<polygon fill="#63b8ff" stroke="#63b8ff" points="177.57,-705.48 188.08,-704.18 179.05,-698.64 177.57,-705.48"/>
</a>
</g>
</g>
<!-- Node15 -->
<g id="Node000015" class="node">
<title>Node15</title>
<g id="a_Node000015"><a xlink:href="group__hdc2080__basic__driver.html#ga81146d21c97ef1b8435ab3c44f13e4d2" target="_top" xlink:title="set humidity high threshold">
<polygon fill="white" stroke="#666666" points="298.62,-684 185.12,-684 185.12,-652 298.62,-652 298.62,-684"/>
<text xml:space="preserve" text-anchor="start" x="193.12" y="-670.5" font-family="Helvetica,sans-Serif" font-size="10.00">hdc2080_set_humidity</text>
<text xml:space="preserve" text-anchor="middle" x="241.88" y="-658.5" font-family="Helvetica,sans-Serif" font-size="10.00">_high_threshold</text>
</a>
</g>
</g>
<!-- Node1&#45;&gt;Node15 -->
<g id="edge14_Node000001_Node000015" class="edge">
<title>Node1&#45;&gt;Node15</title>
<g id="a_edge14_Node000001_Node000015"><a xlink:title=" ">
<path fill="none" stroke="#63b8ff" d="M111.41,-650.43C130.92,-653.08 153.12,-656.09 173.56,-658.87"/>
<polygon fill="#63b8ff" stroke="#63b8ff" points="172.83,-662.3 183.21,-660.18 173.77,-655.36 172.83,-662.3"/>
</a>
</g>
</g>
<!-- Node16 -->
<g id="Node000016" class="node">
<title>Node16</title>
<g id="a_Node000016"><a xlink:href="group__hdc2080__basic__driver.html#ga69e564e50962366a576405265299aa92" target="_top" xlink:title="set humidity low threshold">
<polygon fill="white" stroke="#666666" points="298.62,-634 185.12,-634 185.12,-602 298.62,-602 298.62,-634"/>
<text xml:space="preserve" text-anchor="start" x="193.12" y="-620.5" font-family="Helvetica,sans-Serif" font-size="10.00">hdc2080_set_humidity</text>
<text xml:space="preserve" text-anchor="middle" x="241.88" y="-608.5" font-family="Helvetica,sans-Serif" font-size="10.00">_low_threshold</text>
</a>
</g>
</g>
<!-- Node1&#45;&gt;Node16 -->
<g id="edge15_Node000001_Node000016" class="edge">
<title>Node1&#45;&gt;Node16</title>
<g id="a_edge15_Node000001_Node000016"><a xlink:title=" ">
<path fill="none" stroke="#63b8ff" d="M111.41,-635.57C130.92,-632.92 153.12,-629.91 173.56,-627.13"/>
<polygon fill="#63b8ff" stroke="#63b8ff" points="173.77,-630.64 183.21,-625.82 172.83,-623.7 173.77,-630.64"/>
</a>
</g>
</g>
<!-- Node17 -->
<g id="Node000017" class="node">
<title>Node17</title>
<g id="a_Node000017"><a xlink:href="group__hdc2080__basic__driver.html#gab5541feed29084fa6d64c37a1d009d9f" target="_top" xlink:title="set humidity offset adjustment">
<polygon fill="white" stroke="#666666" points="298.62,-584 185.12,-584 185.12,-552 298.62,-552 298.62,-584"/>
<text xml:space="preserve" text-anchor="start" x="193.12" y="-570.5" font-family="Helvetica,sans-Serif" font-size="10.00">hdc2080_set_humidity</text>
<text xml:space="preserve" text-anchor="middle" x="241.88" y="-558.5" font-family="Helvetica,sans-Serif" font-size="10.00">_offset_adjustment</text>
</a>
</g>
</g>
<!-- Node1&#45;&gt;Node17 -->
<g id="edge16_Node000001_Node000017" class="edge">
<title>Node1&#45;&gt;Node17</title>
<g id="a_edge16_Node000001_Node000017"><a xlink:title=" ">
<path fill="none" stroke="#63b8ff" d="M72.73,-632.53C90.41,-621.43 119.91,-604 147.25,-593 155.68,-589.61 164.73,-586.53 173.75,-583.79"/>
<polygon fill="#63b8ff" stroke="#63b8ff" points="174.61,-587.19 183.24,-581.04 172.67,-580.46 174.61,-587.19"/>
</a>
</g>
</g>
<!-- Node18 -->
<g id="Node000018" class="node">
<title>Node18</title>
<g id="a_Node000018"><a xlink:href="group__hdc2080__basic__driver.html#ga1d19340c651aaaca4609c37ecdcb519b" target="_top" xlink:title="set humidity resolution">
<polygon fill="white" stroke="#666666" points="298.62,-534 185.12,-534 185.12,-502 298.62,-502 298.62,-534"/>
<text xml:space="preserve" text-anchor="start" x="193.12" y="-520.5" font-family="Helvetica,sans-Serif" font-size="10.00">hdc2080_set_humidity</text>
<text xml:space="preserve" text-anchor="middle" x="241.88" y="-508.5" font-family="Helvetica,sans-Serif" font-size="10.00">_resolution</text>
</a>
</g>
</g>
<!-- Node1&#45;&gt;Node18 -->
<g id="edge17_Node000001_Node000018" class="edge">
<title>Node1&#45;&gt;Node18</title>
<g id="a_edge17_Node000001_Node000018"><a xlink:title=" ">
<path fill="none" stroke="#63b8ff" d="M62.97,-632.73C76.08,-612.36 108.25,-566.79 147.25,-543 155.41,-538.03 164.55,-534.03 173.84,-530.82"/>
<polygon fill="#63b8ff" stroke="#63b8ff" points="174.82,-534.18 183.32,-527.85 172.73,-527.5 174.82,-534.18"/>
</a>
</g>
</g>
<!-- Node19 -->
<g id="Node000019" class="node">
<title>Node19</title>
<g id="a_Node000019"><a xlink:href="group__hdc2080__basic__driver.html#gac894344d237d1ba9de4ce3ad3d427f0b" target="_top" xlink:title="enable or disable interrupt">
<polygon fill="white" stroke="#666666" points="297.88,-484 185.88,-484 185.88,-464 297.88,-464 297.88,-484"/>
<text xml:space="preserve" text-anchor="middle" x="241.88" y="-470.5" font-family="Helvetica,sans-Serif" font-size="10.00">hdc2080_set_interrupt</text>
</a>
</g>
</g>
<!-- Node1&#45;&gt;Node19 -->
<g id="edge18_Node000001_Node000019" class="edge">
<title>Node1&#45;&gt;Node19</title>
<g id="a_edge18_Node000001_Node000019"><a xlink:title=" ">
<path fill="none" stroke="#63b8ff" d="M59.66,-632.6C68.29,-604.96 95.76,-529.27 147.25,-493 155.43,-487.24 164.95,-483.14 174.72,-480.23"/>
<polygon fill="#63b8ff" stroke="#63b8ff" points="175.5,-483.65 184.34,-477.81 173.79,-476.86 175.5,-483.65"/>
</a>
</g>
</g>
<!-- Node20 -->
<g id="Node000020" class="node">
<title>Node20</title>
<g id="a_Node000020"><a xlink:href="group__hdc2080__basic__driver.html#ga43cf40868c82ba934f6ec8c801ccc51f" target="_top" xlink:title="enable or disable interrupt pin">
<polygon fill="white" stroke="#666666" points="306.88,-446 176.88,-446 176.88,-426 306.88,-426 306.88,-446"/>
<text xml:space="preserve" text-anchor="middle" x="241.88" y="-432.5" font-family="Helvetica,sans-Serif" font-size="10.00">hdc2080_set_interrupt_pin</text>
</a>
</g>
</g>
<!-- Node1&#45;&gt;Node20 -->
<g id="edge19_Node000001_Node000020" class="edge">
<title>Node1&#45;&gt;Node20</title>
<g id="a_edge19_Node000001_Node000020"><a xlink:title=" ">
<path fill="none" stroke="#63b8ff" d="M58.28,-632.88C64.05,-601.06 86.32,-502.37 147.25,-455 152.84,-450.66 159.16,-447.23 165.82,-444.54"/>
<polygon fill="#63b8ff" stroke="#63b8ff" points="166.74,-447.93 175.07,-441.39 164.48,-441.3 166.74,-447.93"/>
</a>
</g>
</g>
<!-- Node21 -->
<g id="Node000021" class="node">
<title>Node21</title>
<g id="a_Node000021"><a xlink:href="group__hdc2080__basic__driver.html#gaac4a7f20425165eb8fbff00410862461" target="_top" xlink:title="set interrupt polarity">
<polygon fill="white" stroke="#666666" points="297.88,-408 185.88,-408 185.88,-376 297.88,-376 297.88,-408"/>
<text xml:space="preserve" text-anchor="start" x="193.88" y="-394.5" font-family="Helvetica,sans-Serif" font-size="10.00">hdc2080_set_interrupt</text>
<text xml:space="preserve" text-anchor="middle" x="241.88" y="-382.5" font-family="Helvetica,sans-Serif" font-size="10.00">_polarity</text>
</a>
</g>
</g>
<!-- Node1&#45;&gt;Node21 -->
<g id="edge20_Node000001_Node000021" class="edge">
<title>Node1&#45;&gt;Node21</title>
<g id="a_edge20_Node000001_Node000021"><a xlink:title=" ">
<path fill="none" stroke="#63b8ff" d="M57.57,-632.61C61.38,-596.82 78.92,-477.56 147.25,-417 155.11,-410.03 164.7,-404.98 174.72,-401.32"/>
<polygon fill="#63b8ff" stroke="#63b8ff" points="175.75,-404.66 184.24,-398.32 173.65,-397.98 175.75,-404.66"/>
</a>
</g>
</g>
<!-- Node22 -->
<g id="Node000022" class="node">
<title>Node22</title>
<g id="a_Node000022"><a xlink:href="group__hdc2080__basic__driver.html#ga08215759108f1ea1285e60c256a30ac4" target="_top" xlink:title="enable or disable measurement">
<polygon fill="white" stroke="#666666" points="309.88,-358 173.88,-358 173.88,-338 309.88,-338 309.88,-358"/>
<text xml:space="preserve" text-anchor="middle" x="241.88" y="-344.5" font-family="Helvetica,sans-Serif" font-size="10.00">hdc2080_set_measurement</text>
</a>
</g>
</g>
<!-- Node1&#45;&gt;Node22 -->
<g id="edge21_Node000001_Node000022" class="edge">
<title>Node1&#45;&gt;Node22</title>
<g id="a_edge21_Node000001_Node000022"><a xlink:title=" ">
<path fill="none" stroke="#63b8ff" d="M56.58,-632.54C57,-591.57 64.34,-440.73 147.25,-367 151.98,-362.8 157.37,-359.43 163.13,-356.73"/>
<polygon fill="#63b8ff" stroke="#63b8ff" points="164.36,-360.01 172.41,-353.12 161.82,-353.48 164.36,-360.01"/>
</a>
</g>
</g>
<!-- Node23 -->
<g id="Node000023" class="node">
<title>Node23</title>
<g id="a_Node000023"><a xlink:href="group__hdc2080__basic__driver.html#ga7f99a32992bed17349ae7466b8f8a440" target="_top" xlink:title="set the chip mode">
<polygon fill="white" stroke="#666666" points="292.25,-320 191.5,-320 191.5,-300 292.25,-300 292.25,-320"/>
<text xml:space="preserve" text-anchor="middle" x="241.88" y="-306.5" font-family="Helvetica,sans-Serif" font-size="10.00">hdc2080_set_mode</text>
</a>
</g>
</g>
<!-- Node1&#45;&gt;Node23 -->
<g id="edge22_Node000001_Node000023" class="edge">
<title>Node1&#45;&gt;Node23</title>
<g id="a_edge22_Node000001_Node000023"><a xlink:title=" ">
<path fill="none" stroke="#63b8ff" d="M56.11,-632.67C54.5,-588.6 54.45,-414.59 147.25,-329 156.3,-320.65 167.98,-315.54 180.01,-312.51"/>
<polygon fill="#63b8ff" stroke="#63b8ff" points="180.49,-315.98 189.59,-310.56 179.1,-309.12 180.49,-315.98"/>
</a>
</g>
</g>
<!-- Node24 -->
<g id="Node000024" class="node">
<title>Node24</title>
<g id="a_Node000024"><a xlink:href="group__hdc2080__basic__driver.html#gae9ffbbd24025b0d17dead63e5b43d803" target="_top" xlink:title="set temperature high threshold">
<polygon fill="white" stroke="#666666" points="306.12,-282 177.62,-282 177.62,-250 306.12,-250 306.12,-282"/>
<text xml:space="preserve" text-anchor="start" x="185.62" y="-268.5" font-family="Helvetica,sans-Serif" font-size="10.00">hdc2080_set_temperature</text>
<text xml:space="preserve" text-anchor="middle" x="241.88" y="-256.5" font-family="Helvetica,sans-Serif" font-size="10.00">_high_threshold</text>
</a>
</g>
</g>
<!-- Node1&#45;&gt;Node24 -->
<g id="edge23_Node000001_Node000024" class="edge">
<title>Node1&#45;&gt;Node24</title>
<g id="a_edge23_Node000001_Node000024"><a xlink:title=" ">
<path fill="none" stroke="#63b8ff" d="M57.87,-632.78C64.43,-580.34 96.72,-341.98 147.25,-291 152.88,-285.31 159.66,-280.88 166.95,-277.43"/>
<polygon fill="#63b8ff" stroke="#63b8ff" points="168.17,-280.71 176.15,-273.73 165.56,-274.21 168.17,-280.71"/>
</a>
</g>
</g>
<!-- Node25 -->
<g id="Node000025" class="node">
<title>Node25</title>
<g id="a_Node000025"><a xlink:href="group__hdc2080__basic__driver.html#ga0fde92039b1e5d39bb0f41fdf777ca8a" target="_top" xlink:title="set temperature low threshold">
<polygon fill="white" stroke="#666666" points="306.12,-232 177.62,-232 177.62,-200 306.12,-200 306.12,-232"/>
<text xml:space="preserve" text-anchor="start" x="185.62" y="-218.5" font-family="Helvetica,sans-Serif" font-size="10.00">hdc2080_set_temperature</text>
<text xml:space="preserve" text-anchor="middle" x="241.88" y="-206.5" font-family="Helvetica,sans-Serif" font-size="10.00">_low_threshold</text>
</a>
</g>
</g>
<!-- Node1&#45;&gt;Node25 -->
<g id="edge24_Node000001_Node000025" class="edge">
<title>Node1&#45;&gt;Node25</title>
<g id="a_edge24_Node000001_Node000025"><a xlink:title=" ">
<path fill="none" stroke="#63b8ff" d="M57.51,-632.87C62.64,-576.33 90.35,-300.18 147.25,-241 152.86,-235.16 159.67,-230.64 167.03,-227.14"/>
<polygon fill="#63b8ff" stroke="#63b8ff" points="167.98,-230.53 175.95,-223.54 165.36,-224.04 167.98,-230.53"/>
</a>
</g>
</g>
<!-- Node26 -->
<g id="Node000026" class="node">
<title>Node26</title>
<g id="a_Node000026"><a xlink:href="group__hdc2080__basic__driver.html#ga0f274c83f0e7ac68111bc91de55be0a4" target="_top" xlink:title="set temperature offset adjustment">
<polygon fill="white" stroke="#666666" points="306.12,-182 177.62,-182 177.62,-150 306.12,-150 306.12,-182"/>
<text xml:space="preserve" text-anchor="start" x="185.62" y="-168.5" font-family="Helvetica,sans-Serif" font-size="10.00">hdc2080_set_temperature</text>
<text xml:space="preserve" text-anchor="middle" x="241.88" y="-156.5" font-family="Helvetica,sans-Serif" font-size="10.00">_offset_adjustment</text>
</a>
</g>
</g>
<!-- Node1&#45;&gt;Node26 -->
<g id="edge25_Node000001_Node000026" class="edge">
<title>Node1&#45;&gt;Node26</title>
<g id="a_edge25_Node000001_Node000026"><a xlink:title=" ">
<path fill="none" stroke="#63b8ff" d="M57.24,-632.84C61.1,-572.19 83.98,-258.39 147.25,-191 152.79,-185.1 159.56,-180.53 166.89,-177.01"/>
<polygon fill="#63b8ff" stroke="#63b8ff" points="167.84,-180.4 175.79,-173.39 165.2,-173.91 167.84,-180.4"/>
</a>
</g>
</g>
<!-- Node27 -->
<g id="Node000027" class="node">
<title>Node27</title>
<g id="a_Node000027"><a xlink:href="group__hdc2080__basic__driver.html#ga2db73b4f9c0efdf23e903657b7cfa3fc" target="_top" xlink:title="set temperature resolution">
<polygon fill="white" stroke="#666666" points="306.12,-132 177.62,-132 177.62,-100 306.12,-100 306.12,-132"/>
<text xml:space="preserve" text-anchor="start" x="185.62" y="-118.5" font-family="Helvetica,sans-Serif" font-size="10.00">hdc2080_set_temperature</text>
<text xml:space="preserve" text-anchor="middle" x="241.88" y="-106.5" font-family="Helvetica,sans-Serif" font-size="10.00">_resolution</text>
</a>
</g>
</g>
<!-- Node1&#45;&gt;Node27 -->
<g id="edge26_Node000001_Node000027" class="edge">
<title>Node1&#45;&gt;Node27</title>
<g id="a_edge26_Node000001_Node000027"><a xlink:title=" ">
<path fill="none" stroke="#63b8ff" d="M57.03,-632.58C59.77,-567.46 77.66,-216.57 147.25,-141 152.81,-134.96 159.66,-130.31 167.09,-126.75"/>
<polygon fill="#63b8ff" stroke="#63b8ff" points="168.17,-130.09 176.13,-123.1 165.55,-123.6 168.17,-130.09"/>
</a>
</g>
</g>
<!-- Node28 -->
<g id="Node000028" class="node">
<title>Node28</title>
<g id="a_Node000028"><a xlink:href="group__hdc2080__basic__driver.html#gad62502afbce65dc2fe3d024aee4e7ffa" target="_top" xlink:title="convert the temperature to the register raw data">
<polygon fill="white" stroke="#666666" points="296.75,-82 187,-82 187,-50 296.75,-50 296.75,-82"/>
<text xml:space="preserve" text-anchor="start" x="195" y="-68.5" font-family="Helvetica,sans-Serif" font-size="10.00">hdc2080_temperature</text>
<text xml:space="preserve" text-anchor="middle" x="241.88" y="-56.5" font-family="Helvetica,sans-Serif" font-size="10.00">_convert_to_register</text>
</a>
</g>
</g>
<!-- Node1&#45;&gt;Node28 -->
<g id="edge27_Node000001_Node000028" class="edge">
<title>Node1&#45;&gt;Node28</title>
<g id="a_edge27_Node000001_Node000028"><a xlink:title=" ">
<path fill="none" stroke="#63b8ff" d="M56.84,-632.9C58.47,-565 71.11,-175.01 147.25,-91 154.88,-82.59 164.99,-76.87 175.75,-73.02"/>
<polygon fill="#63b8ff" stroke="#63b8ff" points="176.63,-76.41 185.21,-70.18 174.62,-69.7 176.63,-76.41"/>
</a>
</g>
</g>
<!-- Node29 -->
<g id="Node000029" class="node">
<title>Node29</title>
<g id="a_Node000029"><a xlink:href="group__hdc2080__basic__driver.html#ga339704b9488ed6525827bcd46b283faf" target="_top" xlink:title="convert the temperature offset to the register raw data">
<polygon fill="white" stroke="#666666" points="308.75,-32 175,-32 175,0 308.75,0 308.75,-32"/>
<text xml:space="preserve" text-anchor="start" x="183" y="-18.5" font-family="Helvetica,sans-Serif" font-size="10.00">hdc2080_temperature</text>
<text xml:space="preserve" text-anchor="middle" x="241.88" y="-6.5" font-family="Helvetica,sans-Serif" font-size="10.00">_offset_convert_to_register</text>
</a>
</g>
</g>
<!-- Node1&#45;&gt;Node29 -->
<g id="edge28_Node000001_Node000029" class="edge">
<title>Node1&#45;&gt;Node29</title>
<g id="a_edge28_Node000001_Node000029"><a xlink:title=" ">
<path fill="none" stroke="#63b8ff" d="M56.69,-632.93C57.33,-561.64 64.64,-133.37 147.25,-41 152.11,-35.57 158,-31.26 164.44,-27.85"/>
<polygon fill="#63b8ff" stroke="#63b8ff" points="165.83,-31.06 173.56,-23.81 163,-24.66 165.83,-31.06"/>
</a>
</g>
</g>
</g>
</svg>
