<?xml version="1.0" encoding="UTF-8" standalone="no"?>
<!DOCTYPE svg PUBLIC "-//W3C//DTD SVG 1.1//EN"
 "http://www.w3.org/Graphics/SVG/1.1/DTD/svg11.dtd">
<!-- Generated by graphviz version 13.1.0 (20250701.0955)
 -->
<!-- Title: hdc2080_basic_init Pages: 1 -->
<svg width="333pt" height="1284pt"
 viewBox="0.00 0.00 333.00 1284.00" xmlns="http://www.w3.org/2000/svg" xmlns:xlink="http://www.w3.org/1999/xlink">
<g id="graph0" class="graph" transform="scale(1 1) rotate(0) translate(4 1280)">
<title>hdc2080_basic_init</title>
<!-- Node1 -->
<g id="Node000001" class="node">
<title>Node1</title>
<g id="a_Node000001"><a xlink:title="basic example init">
<polygon fill="#999999" stroke="#666666" points="99.25,-666 0,-666 0,-646 99.25,-646 99.25,-666"/>
<text xml:space="preserve" text-anchor="middle" x="49.62" y="-652.5" font-family="Helvetica,sans-Serif" font-size="10.00">hdc2080_basic_init</text>
</a>
</g>
</g>
<!-- Node2 -->
<g id="Node000002" class="node">
<title>Node2</title>
<g id="a_Node000002"><a xlink:href="group__hdc2080__basic__driver.html#ga2a30e99b172ed92a430c1bf08b10b49b" target="_top" xlink:title="close the chip">
<polygon fill="white" stroke="#666666" points="270.5,-1276 189.25,-1276 189.25,-1256 270.5,-1256 270.5,-1276"/>
<text xml:space="preserve" text-anchor="middle" x="229.88" y="-1262.5" font-family="Helvetica,sans-Serif" font-size="10.00">hdc2080_deinit</text>
</a>
</g>
</g>
<!-- Node1&#45;&gt;Node2 -->
<g id="edge1_Node000001_Node000002" class="edge">
<title>Node1&#45;&gt;Node2</title>
<g id="a_edge1_Node000001_Node000002"><a xlink:title=" ">
<path fill="none" stroke="#63b8ff" d="M50.55,-666.39C50.24,-738.05 52.02,-1158.8 135.25,-1247 146.15,-1258.55 162,-1264.12 177.56,-1266.56"/>
<polygon fill="#63b8ff" stroke="#63b8ff" points="176.94,-1270.02 187.27,-1267.66 177.72,-1263.06 176.94,-1270.02"/>
</a>
</g>
</g>
<!-- Node3 -->
<g id="Node000003" class="node">
<title>Node3</title>
<g id="a_Node000003"><a xlink:href="group__hdc2080__basic__driver.html#gabca4762ee2aa923e382a1661640b5ae9" target="_top" xlink:title="convert the humidity to the register raw data">
<polygon fill="white" stroke="#666666" points="296,-1238 163.75,-1238 163.75,-1206 296,-1206 296,-1238"/>
<text xml:space="preserve" text-anchor="start" x="171.75" y="-1224.5" font-family="Helvetica,sans-Serif" font-size="10.00">hdc2080_humidity_convert</text>
<text xml:space="preserve" text-anchor="middle" x="229.88" y="-1212.5" font-family="Helvetica,sans-Serif" font-size="10.00">_to_register</text>
</a>
</g>
</g>
<!-- Node1&#45;&gt;Node3 -->
<g id="edge2_Node000001_Node000003" class="edge">
<title>Node1&#45;&gt;Node3</title>
<g id="a_edge2_Node000001_Node000003"><a xlink:title=" ">
<path fill="none" stroke="#63b8ff" d="M50.76,-666.32C51.84,-734.05 61.19,-1114.66 135.25,-1197 140.31,-1202.63 146.49,-1207.05 153.24,-1210.52"/>
<polygon fill="#63b8ff" stroke="#63b8ff" points="151.5,-1213.58 162.07,-1214.34 154.28,-1207.16 151.5,-1213.58"/>
</a>
</g>
</g>
<!-- Node4 -->
<g id="Node000004" class="node">
<title>Node4</title>
<g id="a_Node000004"><a xlink:href="group__hdc2080__basic__driver.html#ga2bc0deeaa37c204c06c60b8cccaca717" target="_top" xlink:title="convert the humidity offset to the register raw data">
<polygon fill="white" stroke="#666666" points="291.88,-1188 167.88,-1188 167.88,-1156 291.88,-1156 291.88,-1188"/>
<text xml:space="preserve" text-anchor="start" x="175.88" y="-1174.5" font-family="Helvetica,sans-Serif" font-size="10.00">hdc2080_humidity_offset</text>
<text xml:space="preserve" text-anchor="middle" x="229.88" y="-1162.5" font-family="Helvetica,sans-Serif" font-size="10.00">_convert_to_register</text>
</a>
</g>
</g>
<!-- Node1&#45;&gt;Node4 -->
<g id="edge3_Node000001_Node000004" class="edge">
<title>Node1&#45;&gt;Node4</title>
<g id="a_edge3_Node000001_Node000004"><a xlink:title=" ">
<path fill="none" stroke="#63b8ff" d="M50.93,-666.18C53.06,-729.86 67.57,-1072.92 135.25,-1147 141.23,-1153.55 148.73,-1158.46 156.85,-1162.13"/>
<polygon fill="#63b8ff" stroke="#63b8ff" points="155.41,-1165.33 166,-1165.61 157.89,-1158.79 155.41,-1165.33"/>
</a>
</g>
</g>
<!-- Node5 -->
<g id="Node000005" class="node">
<title>Node5</title>
<g id="a_Node000005"><a xlink:href="group__hdc2080__basic__driver.html#ga09d3d6fbd5678c478353bec317321549" target="_top" xlink:title="initialize the chip">
<polygon fill="white" stroke="#666666" points="265.25,-1138 194.5,-1138 194.5,-1118 265.25,-1118 265.25,-1138"/>
<text xml:space="preserve" text-anchor="middle" x="229.88" y="-1124.5" font-family="Helvetica,sans-Serif" font-size="10.00">hdc2080_init</text>
</a>
</g>
</g>
<!-- Node1&#45;&gt;Node5 -->
<g id="edge4_Node000001_Node000005" class="edge">
<title>Node1&#45;&gt;Node5</title>
<g id="a_edge4_Node000001_Node000005"><a xlink:title=" ">
<path fill="none" stroke="#63b8ff" d="M51.03,-666.23C53.68,-727.3 70.42,-1043.15 135.25,-1109 147.66,-1121.6 165.98,-1127 183.13,-1129.01"/>
<polygon fill="#63b8ff" stroke="#63b8ff" points="182.4,-1132.47 192.64,-1129.77 182.95,-1125.49 182.4,-1132.47"/>
</a>
</g>
</g>
<!-- Node6 -->
<g id="Node000006" class="node">
<title>Node6</title>
<g id="a_Node000006"><a xlink:href="group__hdc2080__interface__driver.html#gabab830e9787f1f8d15ace2275c4ea2d1" target="_top" xlink:title="interface print format data">
<polygon fill="white" stroke="#666666" points="293.38,-1100 166.38,-1100 166.38,-1068 293.38,-1068 293.38,-1100"/>
<text xml:space="preserve" text-anchor="start" x="174.38" y="-1086.5" font-family="Helvetica,sans-Serif" font-size="10.00">hdc2080_interface_debug</text>
<text xml:space="preserve" text-anchor="middle" x="229.88" y="-1074.5" font-family="Helvetica,sans-Serif" font-size="10.00">_print</text>
</a>
</g>
</g>
<!-- Node1&#45;&gt;Node6 -->
<g id="edge5_Node000001_Node000006" class="edge">
<title>Node1&#45;&gt;Node6</title>
<g id="a_edge5_Node000001_Node000006"><a xlink:title=" ">
<path fill="none" stroke="#63b8ff" d="M51.34,-666.15C55.56,-722.79 78.83,-999.45 135.25,-1059 140.98,-1065.05 147.99,-1069.69 155.58,-1073.24"/>
<polygon fill="#63b8ff" stroke="#63b8ff" points="154.22,-1076.47 164.81,-1076.89 156.79,-1069.96 154.22,-1076.47"/>
</a>
</g>
</g>
<!-- Node7 -->
<g id="Node000007" class="node">
<title>Node7</title>
<g id="a_Node000007"><a xlink:href="group__hdc2080__interface__driver.html#ga26945853e58ff175bf91ec1850a95377" target="_top" xlink:title="interface delay ms">
<polygon fill="white" stroke="#666666" points="301.25,-1050 158.5,-1050 158.5,-1030 301.25,-1030 301.25,-1050"/>
<text xml:space="preserve" text-anchor="middle" x="229.88" y="-1036.5" font-family="Helvetica,sans-Serif" font-size="10.00">hdc2080_interface_delay_ms</text>
</a>
</g>
</g>
<!-- Node1&#45;&gt;Node7 -->
<g id="edge6_Node000001_Node000007" class="edge">
<title>Node1&#45;&gt;Node7</title>
<g id="a_edge6_Node000001_Node000007"><a xlink:title=" ">
<path fill="none" stroke="#63b8ff" d="M51.53,-666.29C56.5,-720.17 82.1,-969.29 135.25,-1021 139.13,-1024.78 143.55,-1027.9 148.3,-1030.47"/>
<polygon fill="#63b8ff" stroke="#63b8ff" points="146.51,-1033.51 157.07,-1034.4 149.37,-1027.12 146.51,-1033.51"/>
</a>
</g>
</g>
<!-- Node8 -->
<g id="Node000008" class="node">
<title>Node8</title>
<g id="a_Node000008"><a xlink:href="group__hdc2080__interface__driver.html#ga5afcad81dedea779c0eb1549ed85a57a" target="_top" xlink:title="interface iic bus deinit">
<polygon fill="white" stroke="#666666" points="285.12,-1012 174.62,-1012 174.62,-980 285.12,-980 285.12,-1012"/>
<text xml:space="preserve" text-anchor="start" x="182.62" y="-998.5" font-family="Helvetica,sans-Serif" font-size="10.00">hdc2080_interface_iic</text>
<text xml:space="preserve" text-anchor="middle" x="229.88" y="-986.5" font-family="Helvetica,sans-Serif" font-size="10.00">_deinit</text>
</a>
</g>
</g>
<!-- Node1&#45;&gt;Node8 -->
<g id="edge7_Node000001_Node000008" class="edge">
<title>Node1&#45;&gt;Node8</title>
<g id="a_edge7_Node000001_Node000008"><a xlink:title=" ">
<path fill="none" stroke="#63b8ff" d="M52.02,-666.43C58.82,-715.84 90.07,-925.89 135.25,-971 143.03,-978.76 152.93,-984.19 163.37,-987.97"/>
<polygon fill="#63b8ff" stroke="#63b8ff" points="162.34,-991.32 172.92,-990.9 164.39,-984.63 162.34,-991.32"/>
</a>
</g>
</g>
<!-- Node9 -->
<g id="Node000009" class="node">
<title>Node9</title>
<g id="a_Node000009"><a xlink:href="group__hdc2080__interface__driver.html#ga5203f3cde2fba6c48decc5a9d5845225" target="_top" xlink:title="interface iic bus init">
<polygon fill="white" stroke="#666666" points="294.12,-962 165.62,-962 165.62,-942 294.12,-942 294.12,-962"/>
<text xml:space="preserve" text-anchor="middle" x="229.88" y="-948.5" font-family="Helvetica,sans-Serif" font-size="10.00">hdc2080_interface_iic_init</text>
</a>
</g>
</g>
<!-- Node1&#45;&gt;Node9 -->
<g id="edge8_Node000001_Node000009" class="edge">
<title>Node1&#45;&gt;Node9</title>
<g id="a_edge8_Node000001_Node000009"><a xlink:title=" ">
<path fill="none" stroke="#63b8ff" d="M50.32,-666.48C49.72,-707.51 53.35,-858.63 135.25,-933 140.94,-938.17 147.64,-942.09 154.8,-945.04"/>
<polygon fill="#63b8ff" stroke="#63b8ff" points="153.52,-948.3 164.12,-948.22 155.78,-941.68 153.52,-948.3"/>
</a>
</g>
</g>
<!-- Node10 -->
<g id="Node000010" class="node">
<title>Node10</title>
<g id="a_Node000010"><a xlink:href="group__hdc2080__interface__driver.html#gaa6ad667b87cf54175708096ef112b487" target="_top" xlink:title="interface iic bus read">
<polygon fill="white" stroke="#666666" points="297.12,-924 162.62,-924 162.62,-904 297.12,-904 297.12,-924"/>
<text xml:space="preserve" text-anchor="middle" x="229.88" y="-910.5" font-family="Helvetica,sans-Serif" font-size="10.00">hdc2080_interface_iic_read</text>
</a>
</g>
</g>
<!-- Node1&#45;&gt;Node10 -->
<g id="edge9_Node000001_Node000010" class="edge">
<title>Node1&#45;&gt;Node10</title>
<g id="a_edge9_Node000001_Node000010"><a xlink:title=" ">
<path fill="none" stroke="#63b8ff" d="M50.89,-666.33C52.43,-703.59 62.98,-832.21 135.25,-895 140.22,-899.32 145.91,-902.76 151.96,-905.48"/>
<polygon fill="#63b8ff" stroke="#63b8ff" points="150.43,-908.65 161.02,-908.89 152.89,-902.09 150.43,-908.65"/>
</a>
</g>
</g>
<!-- Node11 -->
<g id="Node000011" class="node">
<title>Node11</title>
<g id="a_Node000011"><a xlink:href="group__hdc2080__interface__driver.html#ga1144e490957047980198de96fd706f65" target="_top" xlink:title="interface iic bus write">
<polygon fill="white" stroke="#666666" points="285.12,-886 174.62,-886 174.62,-854 285.12,-854 285.12,-886"/>
<text xml:space="preserve" text-anchor="start" x="182.62" y="-872.5" font-family="Helvetica,sans-Serif" font-size="10.00">hdc2080_interface_iic</text>
<text xml:space="preserve" text-anchor="middle" x="229.88" y="-860.5" font-family="Helvetica,sans-Serif" font-size="10.00">_write</text>
</a>
</g>
</g>
<!-- Node1&#45;&gt;Node11 -->
<g id="edge10_Node000001_Node000011" class="edge">
<title>Node1&#45;&gt;Node11</title>
<g id="a_edge10_Node000001_Node000011"><a xlink:title=" ">
<path fill="none" stroke="#63b8ff" d="M52.12,-666.45C57.27,-698.4 77.22,-795.59 135.25,-845 143.43,-851.96 153.34,-857.01 163.63,-860.66"/>
<polygon fill="#63b8ff" stroke="#63b8ff" points="162.39,-863.94 172.98,-863.53 164.45,-857.25 162.39,-863.94"/>
</a>
</g>
</g>
<!-- Node12 -->
<g id="Node000012" class="node">
<title>Node12</title>
<g id="a_Node000012"><a xlink:href="group__hdc2080__basic__driver.html#ga75e7c5fa9a7d42089ce880263c89b040" target="_top" xlink:title="set the iic address pin">
<polygon fill="white" stroke="#666666" points="286.62,-836 173.12,-836 173.12,-816 286.62,-816 286.62,-836"/>
<text xml:space="preserve" text-anchor="middle" x="229.88" y="-822.5" font-family="Helvetica,sans-Serif" font-size="10.00">hdc2080_set_addr_pin</text>
</a>
</g>
</g>
<!-- Node1&#45;&gt;Node12 -->
<g id="edge11_Node000001_Node000012" class="edge">
<title>Node1&#45;&gt;Node12</title>
<g id="a_edge11_Node000001_Node000012"><a xlink:title=" ">
<path fill="none" stroke="#63b8ff" d="M53.22,-666.45C60.68,-694.24 84.99,-770.35 135.25,-807 143.05,-812.69 152.15,-816.77 161.54,-819.69"/>
<polygon fill="#63b8ff" stroke="#63b8ff" points="160.63,-823.07 171.19,-822.22 162.4,-816.3 160.63,-823.07"/>
</a>
</g>
</g>
<!-- Node13 -->
<g id="Node000013" class="node">
<title>Node13</title>
<g id="a_Node000013"><a xlink:href="group__hdc2080__basic__driver.html#ga1750e125f2f21f58c18a260222313c5f" target="_top" xlink:title="set auto measurement mode">
<polygon fill="white" stroke="#666666" points="324.5,-798 135.25,-798 135.25,-778 324.5,-778 324.5,-798"/>
<text xml:space="preserve" text-anchor="middle" x="229.88" y="-784.5" font-family="Helvetica,sans-Serif" font-size="10.00">hdc2080_set_auto_measurement_mode</text>
</a>
</g>
</g>
<!-- Node1&#45;&gt;Node13 -->
<g id="edge12_Node000001_Node000013" class="edge">
<title>Node1&#45;&gt;Node13</title>
<g id="a_edge12_Node000001_Node000013"><a xlink:title=" ">
<path fill="none" stroke="#63b8ff" d="M55.21,-666.43C65.76,-689.11 94.03,-742.92 135.25,-769 137.56,-770.46 139.95,-771.81 142.42,-773.06"/>
<polygon fill="#63b8ff" stroke="#63b8ff" points="140.94,-776.23 151.5,-777.04 143.75,-769.82 140.94,-776.23"/>
</a>
</g>
</g>
<!-- Node14 -->
<g id="Node000014" class="node">
<title>Node14</title>
<g id="a_Node000014"><a xlink:href="group__hdc2080__basic__driver.html#gabc86c36cf62d3fefe8c1a11dd66c8bd6" target="_top" xlink:title="enable or disable heater">
<polygon fill="white" stroke="#666666" points="281.75,-760 178,-760 178,-740 281.75,-740 281.75,-760"/>
<text xml:space="preserve" text-anchor="middle" x="229.88" y="-746.5" font-family="Helvetica,sans-Serif" font-size="10.00">hdc2080_set_heater</text>
</a>
</g>
</g>
<!-- Node1&#45;&gt;Node14 -->
<g id="edge13_Node000001_Node000014" class="edge">
<title>Node1&#45;&gt;Node14</title>
<g id="a_edge13_Node000001_Node000014"><a xlink:title=" ">
<path fill="none" stroke="#63b8ff" d="M59.04,-666.37C73.03,-682.84 102.75,-714.79 135.25,-731 144.94,-735.84 155.78,-739.44 166.56,-742.13"/>
<polygon fill="#63b8ff" stroke="#63b8ff" points="165.71,-745.52 176.23,-744.28 167.23,-738.69 165.71,-745.52"/>
</a>
</g>
</g>
<!-- Node15 -->
<g id="Node000015" class="node">
<title>Node15</title>
<g id="a_Node000015"><a xlink:href="group__hdc2080__basic__driver.html#ga81146d21c97ef1b8435ab3c44f13e4d2" target="_top" xlink:title="set humidity high threshold">
<polygon fill="white" stroke="#666666" points="286.62,-722 173.12,-722 173.12,-690 286.62,-690 286.62,-722"/>
<text xml:space="preserve" text-anchor="start" x="181.12" y="-708.5" font-family="Helvetica,sans-Serif" font-size="10.00">hdc2080_set_humidity</text>
<text xml:space="preserve" text-anchor="middle" x="229.88" y="-696.5" font-family="Helvetica,sans-Serif" font-size="10.00">_high_threshold</text>
</a>
</g>
</g>
<!-- Node1&#45;&gt;Node15 -->
<g id="edge14_Node000001_Node000015" class="edge">
<title>Node1&#45;&gt;Node15</title>
<g id="a_edge14_Node000001_Node000015"><a xlink:title=" ">
<path fill="none" stroke="#63b8ff" d="M85.15,-666.42C100.47,-670.99 118.73,-676.36 135.25,-681 143.89,-683.43 152.99,-685.93 161.98,-688.37"/>
<polygon fill="#63b8ff" stroke="#63b8ff" points="160.84,-691.68 171.4,-690.91 162.66,-684.93 160.84,-691.68"/>
</a>
</g>
</g>
<!-- Node16 -->
<g id="Node000016" class="node">
<title>Node16</title>
<g id="a_Node000016"><a xlink:href="group__hdc2080__basic__driver.html#ga69e564e50962366a576405265299aa92" target="_top" xlink:title="set humidity low threshold">
<polygon fill="white" stroke="#666666" points="286.62,-672 173.12,-672 173.12,-640 286.62,-640 286.62,-672"/>
<text xml:space="preserve" text-anchor="start" x="181.12" y="-658.5" font-family="Helvetica,sans-Serif" font-size="10.00">hdc2080_set_humidity</text>
<text xml:space="preserve" text-anchor="middle" x="229.88" y="-646.5" font-family="Helvetica,sans-Serif" font-size="10.00">_low_threshold</text>
</a>
</g>
</g>
<!-- Node1&#45;&gt;Node16 -->
<g id="edge15_Node000001_Node000016" class="edge">
<title>Node1&#45;&gt;Node16</title>
<g id="a_edge15_Node000001_Node000016"><a xlink:title=" ">
<path fill="none" stroke="#63b8ff" d="M99.33,-656C118.47,-656 140.75,-656 161.39,-656"/>
<polygon fill="#63b8ff" stroke="#63b8ff" points="161.15,-659.5 171.15,-656 161.15,-652.5 161.15,-659.5"/>
</a>
</g>
</g>
<!-- Node17 -->
<g id="Node000017" class="node">
<title>Node17</title>
<g id="a_Node000017"><a xlink:href="group__hdc2080__basic__driver.html#gab5541feed29084fa6d64c37a1d009d9f" target="_top" xlink:title="set humidity offset adjustment">
<polygon fill="white" stroke="#666666" points="286.62,-622 173.12,-622 173.12,-590 286.62,-590 286.62,-622"/>
<text xml:space="preserve" text-anchor="start" x="181.12" y="-608.5" font-family="Helvetica,sans-Serif" font-size="10.00">hdc2080_set_humidity</text>
<text xml:space="preserve" text-anchor="middle" x="229.88" y="-596.5" font-family="Helvetica,sans-Serif" font-size="10.00">_offset_adjustment</text>
</a>
</g>
</g>
<!-- Node1&#45;&gt;Node17 -->
<g id="edge16_Node000001_Node000017" class="edge">
<title>Node1&#45;&gt;Node17</title>
<g id="a_edge16_Node000001_Node000017"><a xlink:title=" ">
<path fill="none" stroke="#63b8ff" d="M85.15,-645.58C100.47,-641.01 118.73,-635.64 135.25,-631 143.89,-628.57 152.99,-626.07 161.98,-623.63"/>
<polygon fill="#63b8ff" stroke="#63b8ff" points="162.66,-627.07 171.4,-621.09 160.84,-620.32 162.66,-627.07"/>
</a>
</g>
</g>
<!-- Node18 -->
<g id="Node000018" class="node">
<title>Node18</title>
<g id="a_Node000018"><a xlink:href="group__hdc2080__basic__driver.html#ga1d19340c651aaaca4609c37ecdcb519b" target="_top" xlink:title="set humidity resolution">
<polygon fill="white" stroke="#666666" points="286.62,-572 173.12,-572 173.12,-540 286.62,-540 286.62,-572"/>
<text xml:space="preserve" text-anchor="start" x="181.12" y="-558.5" font-family="Helvetica,sans-Serif" font-size="10.00">hdc2080_set_humidity</text>
<text xml:space="preserve" text-anchor="middle" x="229.88" y="-546.5" font-family="Helvetica,sans-Serif" font-size="10.00">_resolution</text>
</a>
</g>
</g>
<!-- Node1&#45;&gt;Node18 -->
<g id="edge17_Node000001_Node000018" class="edge">
<title>Node1&#45;&gt;Node18</title>
<g id="a_edge17_Node000001_Node000018"><a xlink:title=" ">
<path fill="none" stroke="#63b8ff" d="M59.39,-645.6C73.63,-629.36 103.43,-598.1 135.25,-581 143.56,-576.54 152.72,-572.83 161.96,-569.76"/>
<polygon fill="#63b8ff" stroke="#63b8ff" points="162.81,-573.16 171.35,-566.89 160.76,-566.47 162.81,-573.16"/>
</a>
</g>
</g>
<!-- Node19 -->
<g id="Node000019" class="node">
<title>Node19</title>
<g id="a_Node000019"><a xlink:href="group__hdc2080__basic__driver.html#gac894344d237d1ba9de4ce3ad3d427f0b" target="_top" xlink:title="enable or disable interrupt">
<polygon fill="white" stroke="#666666" points="285.88,-522 173.88,-522 173.88,-502 285.88,-502 285.88,-522"/>
<text xml:space="preserve" text-anchor="middle" x="229.88" y="-508.5" font-family="Helvetica,sans-Serif" font-size="10.00">hdc2080_set_interrupt</text>
</a>
</g>
</g>
<!-- Node1&#45;&gt;Node19 -->
<g id="edge18_Node000001_Node000019" class="edge">
<title>Node1&#45;&gt;Node19</title>
<g id="a_edge18_Node000001_Node000019"><a xlink:title=" ">
<path fill="none" stroke="#63b8ff" d="M54.45,-645.58C63.98,-621.21 91.2,-560.36 135.25,-531 143.47,-525.52 152.94,-521.56 162.62,-518.71"/>
<polygon fill="#63b8ff" stroke="#63b8ff" points="163.29,-522.15 172.13,-516.32 161.58,-515.37 163.29,-522.15"/>
</a>
</g>
</g>
<!-- Node20 -->
<g id="Node000020" class="node">
<title>Node20</title>
<g id="a_Node000020"><a xlink:href="group__hdc2080__basic__driver.html#gaad6881354e61db9a588e81c5eabd999c" target="_top" xlink:title="set interrupt mode">
<polygon fill="white" stroke="#666666" points="300.5,-484 159.25,-484 159.25,-464 300.5,-464 300.5,-484"/>
<text xml:space="preserve" text-anchor="middle" x="229.88" y="-470.5" font-family="Helvetica,sans-Serif" font-size="10.00">hdc2080_set_interrupt_mode</text>
</a>
</g>
</g>
<!-- Node1&#45;&gt;Node20 -->
<g id="edge19_Node000001_Node000020" class="edge">
<title>Node1&#45;&gt;Node20</title>
<g id="a_edge19_Node000001_Node000020"><a xlink:title=" ">
<path fill="none" stroke="#63b8ff" d="M52.75,-645.59C59.31,-616.37 82.04,-533.12 135.25,-493 139.31,-489.94 143.74,-487.34 148.39,-485.14"/>
<polygon fill="#63b8ff" stroke="#63b8ff" points="149.5,-488.46 157.46,-481.48 146.88,-481.97 149.5,-488.46"/>
</a>
</g>
</g>
<!-- Node21 -->
<g id="Node000021" class="node">
<title>Node21</title>
<g id="a_Node000021"><a xlink:href="group__hdc2080__basic__driver.html#ga43cf40868c82ba934f6ec8c801ccc51f" target="_top" xlink:title="enable or disable interrupt pin">
<polygon fill="white" stroke="#666666" points="294.88,-446 164.88,-446 164.88,-426 294.88,-426 294.88,-446"/>
<text xml:space="preserve" text-anchor="middle" x="229.88" y="-432.5" font-family="Helvetica,sans-Serif" font-size="10.00">hdc2080_set_interrupt_pin</text>
</a>
</g>
</g>
<!-- Node1&#45;&gt;Node21 -->
<g id="edge20_Node000001_Node000021" class="edge">
<title>Node1&#45;&gt;Node21</title>
<g id="a_edge20_Node000001_Node000021"><a xlink:title=" ">
<path fill="none" stroke="#63b8ff" d="M51.65,-645.69C55.55,-612.3 72.57,-506.34 135.25,-455 140.81,-450.45 147.16,-446.89 153.89,-444.13"/>
<polygon fill="#63b8ff" stroke="#63b8ff" points="154.96,-447.46 163.27,-440.89 152.68,-440.84 154.96,-447.46"/>
</a>
</g>
</g>
<!-- Node22 -->
<g id="Node000022" class="node">
<title>Node22</title>
<g id="a_Node000022"><a xlink:href="group__hdc2080__basic__driver.html#gaac4a7f20425165eb8fbff00410862461" target="_top" xlink:title="set interrupt polarity">
<polygon fill="white" stroke="#666666" points="285.88,-408 173.88,-408 173.88,-376 285.88,-376 285.88,-408"/>
<text xml:space="preserve" text-anchor="start" x="181.88" y="-394.5" font-family="Helvetica,sans-Serif" font-size="10.00">hdc2080_set_interrupt</text>
<text xml:space="preserve" text-anchor="middle" x="229.88" y="-382.5" font-family="Helvetica,sans-Serif" font-size="10.00">_polarity</text>
</a>
</g>
</g>
<!-- Node1&#45;&gt;Node22 -->
<g id="edge21_Node000001_Node000022" class="edge">
<title>Node1&#45;&gt;Node22</title>
<g id="a_edge21_Node000001_Node000022"><a xlink:title=" ">
<path fill="none" stroke="#63b8ff" d="M51.03,-645.56C53.07,-608.47 65.08,-481.81 135.25,-417 142.96,-409.87 152.48,-404.74 162.47,-401.04"/>
<polygon fill="#63b8ff" stroke="#63b8ff" points="163.5,-404.39 171.98,-398.03 161.39,-397.71 163.5,-404.39"/>
</a>
</g>
</g>
<!-- Node23 -->
<g id="Node000023" class="node">
<title>Node23</title>
<g id="a_Node000023"><a xlink:href="group__hdc2080__basic__driver.html#ga08215759108f1ea1285e60c256a30ac4" target="_top" xlink:title="enable or disable measurement">
<polygon fill="white" stroke="#666666" points="297.88,-358 161.88,-358 161.88,-338 297.88,-338 297.88,-358"/>
<text xml:space="preserve" text-anchor="middle" x="229.88" y="-344.5" font-family="Helvetica,sans-Serif" font-size="10.00">hdc2080_set_measurement</text>
</a>
</g>
</g>
<!-- Node1&#45;&gt;Node23 -->
<g id="edge22_Node000001_Node000023" class="edge">
<title>Node1&#45;&gt;Node23</title>
<g id="a_edge22_Node000001_Node000023"><a xlink:title=" ">
<path fill="none" stroke="#63b8ff" d="M50.17,-645.65C48.92,-603.75 50.17,-445.17 135.25,-367 139.91,-362.72 145.25,-359.3 150.98,-356.57"/>
<polygon fill="#63b8ff" stroke="#63b8ff" points="152.21,-359.84 160.22,-352.92 149.64,-353.33 152.21,-359.84"/>
</a>
</g>
</g>
<!-- Node24 -->
<g id="Node000024" class="node">
<title>Node24</title>
<g id="a_Node000024"><a xlink:href="group__hdc2080__basic__driver.html#ga7f99a32992bed17349ae7466b8f8a440" target="_top" xlink:title="set the chip mode">
<polygon fill="white" stroke="#666666" points="280.25,-320 179.5,-320 179.5,-300 280.25,-300 280.25,-320"/>
<text xml:space="preserve" text-anchor="middle" x="229.88" y="-306.5" font-family="Helvetica,sans-Serif" font-size="10.00">hdc2080_set_mode</text>
</a>
</g>
</g>
<!-- Node1&#45;&gt;Node24 -->
<g id="edge23_Node000001_Node000024" class="edge">
<title>Node1&#45;&gt;Node24</title>
<g id="a_edge23_Node000001_Node000024"><a xlink:title=" ">
<path fill="none" stroke="#63b8ff" d="M51.82,-645.79C57.9,-595.51 87.06,-374.7 135.25,-329 144.28,-320.44 156.06,-315.26 168.2,-312.22"/>
<polygon fill="#63b8ff" stroke="#63b8ff" points="168.77,-315.68 177.9,-310.29 167.41,-308.81 168.77,-315.68"/>
</a>
</g>
</g>
<!-- Node25 -->
<g id="Node000025" class="node">
<title>Node25</title>
<g id="a_Node000025"><a xlink:href="group__hdc2080__basic__driver.html#gae9ffbbd24025b0d17dead63e5b43d803" target="_top" xlink:title="set temperature high threshold">
<polygon fill="white" stroke="#666666" points="294.12,-282 165.62,-282 165.62,-250 294.12,-250 294.12,-282"/>
<text xml:space="preserve" text-anchor="start" x="173.62" y="-268.5" font-family="Helvetica,sans-Serif" font-size="10.00">hdc2080_set_temperature</text>
<text xml:space="preserve" text-anchor="middle" x="229.88" y="-256.5" font-family="Helvetica,sans-Serif" font-size="10.00">_high_threshold</text>
</a>
</g>
</g>
<!-- Node1&#45;&gt;Node25 -->
<g id="edge24_Node000001_Node000025" class="edge">
<title>Node1&#45;&gt;Node25</title>
<g id="a_edge24_Node000001_Node000025"><a xlink:title=" ">
<path fill="none" stroke="#63b8ff" d="M51.59,-645.77C56.85,-592.18 83.69,-344.3 135.25,-291 140.88,-285.18 147.7,-280.67 155.07,-277.17"/>
<polygon fill="#63b8ff" stroke="#63b8ff" points="156.02,-280.56 163.99,-273.58 153.4,-274.07 156.02,-280.56"/>
</a>
</g>
</g>
<!-- Node26 -->
<g id="Node000026" class="node">
<title>Node26</title>
<g id="a_Node000026"><a xlink:href="group__hdc2080__basic__driver.html#ga0fde92039b1e5d39bb0f41fdf777ca8a" target="_top" xlink:title="set temperature low threshold">
<polygon fill="white" stroke="#666666" points="294.12,-232 165.62,-232 165.62,-200 294.12,-200 294.12,-232"/>
<text xml:space="preserve" text-anchor="start" x="173.62" y="-218.5" font-family="Helvetica,sans-Serif" font-size="10.00">hdc2080_set_temperature</text>
<text xml:space="preserve" text-anchor="middle" x="229.88" y="-206.5" font-family="Helvetica,sans-Serif" font-size="10.00">_low_threshold</text>
</a>
</g>
</g>
<!-- Node1&#45;&gt;Node26 -->
<g id="edge25_Node000001_Node000026" class="edge">
<title>Node1&#45;&gt;Node26</title>
<g id="a_edge25_Node000001_Node000026"><a xlink:title=" ">
<path fill="none" stroke="#63b8ff" d="M51.3,-645.55C55.26,-587.24 77.4,-302.42 135.25,-241 140.8,-235.11 147.57,-230.55 154.91,-227.02"/>
<polygon fill="#63b8ff" stroke="#63b8ff" points="155.86,-230.42 163.81,-223.41 153.23,-223.93 155.86,-230.42"/>
</a>
</g>
</g>
<!-- Node27 -->
<g id="Node000027" class="node">
<title>Node27</title>
<g id="a_Node000027"><a xlink:href="group__hdc2080__basic__driver.html#ga0f274c83f0e7ac68111bc91de55be0a4" target="_top" xlink:title="set temperature offset adjustment">
<polygon fill="white" stroke="#666666" points="294.12,-182 165.62,-182 165.62,-150 294.12,-150 294.12,-182"/>
<text xml:space="preserve" text-anchor="start" x="173.62" y="-168.5" font-family="Helvetica,sans-Serif" font-size="10.00">hdc2080_set_temperature</text>
<text xml:space="preserve" text-anchor="middle" x="229.88" y="-156.5" font-family="Helvetica,sans-Serif" font-size="10.00">_offset_adjustment</text>
</a>
</g>
</g>
<!-- Node1&#45;&gt;Node27 -->
<g id="edge26_Node000001_Node000027" class="edge">
<title>Node1&#45;&gt;Node27</title>
<g id="a_edge26_Node000001_Node000027"><a xlink:title=" ">
<path fill="none" stroke="#63b8ff" d="M51.05,-645.56C53.8,-583.22 71,-260.67 135.25,-191 140.82,-184.96 147.67,-180.32 155.1,-176.76"/>
<polygon fill="#63b8ff" stroke="#63b8ff" points="156.18,-180.1 164.14,-173.11 153.56,-173.61 156.18,-180.1"/>
</a>
</g>
</g>
<!-- Node28 -->
<g id="Node000028" class="node">
<title>Node28</title>
<g id="a_Node000028"><a xlink:href="group__hdc2080__basic__driver.html#ga2db73b4f9c0efdf23e903657b7cfa3fc" target="_top" xlink:title="set temperature resolution">
<polygon fill="white" stroke="#666666" points="294.12,-132 165.62,-132 165.62,-100 294.12,-100 294.12,-132"/>
<text xml:space="preserve" text-anchor="start" x="173.62" y="-118.5" font-family="Helvetica,sans-Serif" font-size="10.00">hdc2080_set_temperature</text>
<text xml:space="preserve" text-anchor="middle" x="229.88" y="-106.5" font-family="Helvetica,sans-Serif" font-size="10.00">_resolution</text>
</a>
</g>
</g>
<!-- Node1&#45;&gt;Node28 -->
<g id="edge27_Node000001_Node000028" class="edge">
<title>Node1&#45;&gt;Node28</title>
<g id="a_edge27_Node000001_Node000028"><a xlink:title=" ">
<path fill="none" stroke="#63b8ff" d="M50.85,-645.75C52.46,-580.12 64.51,-219.04 135.25,-141 140.77,-134.92 147.58,-130.24 155,-126.66"/>
<polygon fill="#63b8ff" stroke="#63b8ff" points="156.08,-130 164.03,-123 153.44,-123.52 156.08,-130"/>
</a>
</g>
</g>
<!-- Node29 -->
<g id="Node000029" class="node">
<title>Node29</title>
<g id="a_Node000029"><a xlink:href="group__hdc2080__basic__driver.html#gad62502afbce65dc2fe3d024aee4e7ffa" target="_top" xlink:title="convert the temperature to the register raw data">
<polygon fill="white" stroke="#666666" points="284.75,-82 175,-82 175,-50 284.75,-50 284.75,-82"/>
<text xml:space="preserve" text-anchor="start" x="183" y="-68.5" font-family="Helvetica,sans-Serif" font-size="10.00">hdc2080_temperature</text>
<text xml:space="preserve" text-anchor="middle" x="229.88" y="-56.5" font-family="Helvetica,sans-Serif" font-size="10.00">_convert_to_register</text>
</a>
</g>
</g>
<!-- Node1&#45;&gt;Node29 -->
<g id="edge28_Node000001_Node000029" class="edge">
<title>Node1&#45;&gt;Node29</title>
<g id="a_edge28_Node000001_Node000029"><a xlink:title=" ">
<path fill="none" stroke="#63b8ff" d="M50.68,-645.67C51.28,-576.23 58.09,-177.35 135.25,-91 142.82,-82.53 152.9,-76.79 163.65,-72.93"/>
<polygon fill="#63b8ff" stroke="#63b8ff" points="164.53,-76.32 173.11,-70.1 162.52,-69.61 164.53,-76.32"/>
</a>
</g>
</g>
<!-- Node30 -->
<g id="Node000030" class="node">
<title>Node30</title>
<g id="a_Node000030"><a xlink:href="group__hdc2080__basic__driver.html#ga339704b9488ed6525827bcd46b283faf" target="_top" xlink:title="convert the temperature offset to the register raw data">
<polygon fill="white" stroke="#666666" points="296.75,-32 163,-32 163,0 296.75,0 296.75,-32"/>
<text xml:space="preserve" text-anchor="start" x="171" y="-18.5" font-family="Helvetica,sans-Serif" font-size="10.00">hdc2080_temperature</text>
<text xml:space="preserve" text-anchor="middle" x="229.88" y="-6.5" font-family="Helvetica,sans-Serif" font-size="10.00">_offset_convert_to_register</text>
</a>
</g>
</g>
<!-- Node1&#45;&gt;Node30 -->
<g id="edge29_Node000001_Node000030" class="edge">
<title>Node1&#45;&gt;Node30</title>
<g id="a_edge29_Node000001_Node000030"><a xlink:title=" ">
<path fill="none" stroke="#63b8ff" d="M50.55,-645.72C50.19,-572.95 51.61,-135.73 135.25,-41 140.07,-35.54 145.94,-31.21 152.37,-27.78"/>
<polygon fill="#63b8ff" stroke="#63b8ff" points="153.76,-31 161.47,-23.73 150.91,-24.6 153.76,-31"/>
</a>
</g>
</g>
</g>
</svg>
