<?xml version="1.0" encoding="UTF-8" standalone="no"?>
<!DOCTYPE svg PUBLIC "-//W3C//DTD SVG 1.1//EN"
 "http://www.w3.org/Graphics/SVG/1.1/DTD/svg11.dtd">
<!-- Generated by graphviz version 13.1.0 (20250701.0955)
 -->
<!-- Title: hdc2080_shot_read Pages: 1 -->
<svg width="279pt" height="78pt"
 viewBox="0.00 0.00 279.00 78.00" xmlns="http://www.w3.org/2000/svg" xmlns:xlink="http://www.w3.org/1999/xlink">
<g id="graph0" class="graph" transform="scale(1 1) rotate(0) translate(4 74)">
<title>hdc2080_shot_read</title>
<!-- Node1 -->
<g id="Node000001" class="node">
<title>Node1</title>
<g id="a_Node000001"><a xlink:title="shot example read">
<polygon fill="#999999" stroke="#666666" points="100.75,-48 0,-48 0,-28 100.75,-28 100.75,-48"/>
<text xml:space="preserve" text-anchor="middle" x="50.38" y="-34.5" font-family="Helvetica,sans-Serif" font-size="10.00">hdc2080_shot_read</text>
</a>
</g>
</g>
<!-- Node2 -->
<g id="Node000002" class="node">
<title>Node2</title>
<g id="a_Node000002"><a xlink:href="group__hdc2080__basic__driver.html#gaf7fea9692d6c06268fe856df116cf9a9" target="_top" xlink:title="read poll">
<polygon fill="white" stroke="#666666" points="252.12,-70 155.12,-70 155.12,-50 252.12,-50 252.12,-70"/>
<text xml:space="preserve" text-anchor="middle" x="203.62" y="-56.5" font-family="Helvetica,sans-Serif" font-size="10.00">hdc2080_read_poll</text>
</a>
</g>
</g>
<!-- Node1&#45;&gt;Node2 -->
<g id="edge1_Node000001_Node000002" class="edge">
<title>Node1&#45;&gt;Node2</title>
<g id="a_edge1_Node000001_Node000002"><a xlink:title=" ">
<path fill="none" stroke="#63b8ff" d="M100.9,-45.2C114.56,-47.19 129.52,-49.37 143.67,-51.42"/>
<polygon fill="#63b8ff" stroke="#63b8ff" points="142.89,-54.85 153.29,-52.82 143.9,-47.92 142.89,-54.85"/>
</a>
</g>
</g>
<!-- Node3 -->
<g id="Node000003" class="node">
<title>Node3</title>
<g id="a_Node000003"><a xlink:href="group__hdc2080__basic__driver.html#ga1e091fd8a1a1b9a927f3b09b1348f66e" target="_top" xlink:title="read the temperature and humidity data">
<polygon fill="white" stroke="#666666" points="270.5,-32 136.75,-32 136.75,0 270.5,0 270.5,-32"/>
<text xml:space="preserve" text-anchor="start" x="144.75" y="-18.5" font-family="Helvetica,sans-Serif" font-size="10.00">hdc2080_read_temperature</text>
<text xml:space="preserve" text-anchor="middle" x="203.62" y="-6.5" font-family="Helvetica,sans-Serif" font-size="10.00">_humidity</text>
</a>
</g>
</g>
<!-- Node1&#45;&gt;Node3 -->
<g id="edge2_Node000001_Node000003" class="edge">
<title>Node1&#45;&gt;Node3</title>
<g id="a_edge2_Node000001_Node000003"><a xlink:title=" ">
<path fill="none" stroke="#63b8ff" d="M100.9,-30.8C108.72,-29.66 116.96,-28.46 125.23,-27.26"/>
<polygon fill="#63b8ff" stroke="#63b8ff" points="125.6,-30.74 134.99,-25.84 124.59,-23.81 125.6,-30.74"/>
</a>
</g>
</g>
</g>
</svg>
