<?xml version="1.0" encoding="UTF-8" standalone="no"?>
<!DOCTYPE svg PUBLIC "-//W3C//DTD SVG 1.1//EN"
 "http://www.w3.org/Graphics/SVG/1.1/DTD/svg11.dtd">
<!-- Generated by graphviz version 13.1.0 (20250701.0955)
 -->
<!-- Title: hdc2080_shot_init Pages: 1 -->
<svg width="328pt" height="1246pt"
 viewBox="0.00 0.00 328.00 1246.00" xmlns="http://www.w3.org/2000/svg" xmlns:xlink="http://www.w3.org/1999/xlink">
<g id="graph0" class="graph" transform="scale(1 1) rotate(0) translate(4 1242)">
<title>hdc2080_shot_init</title>
<!-- Node1 -->
<g id="Node000001" class="node">
<title>Node1</title>
<g id="a_Node000001"><a xlink:title="shot example init">
<polygon fill="#999999" stroke="#666666" points="94.75,-653 0,-653 0,-633 94.75,-633 94.75,-653"/>
<text xml:space="preserve" text-anchor="middle" x="47.38" y="-639.5" font-family="Helvetica,sans-Serif" font-size="10.00">hdc2080_shot_init</text>
</a>
</g>
</g>
<!-- Node2 -->
<g id="Node000002" class="node">
<title>Node2</title>
<g id="a_Node000002"><a xlink:href="group__hdc2080__basic__driver.html#ga2a30e99b172ed92a430c1bf08b10b49b" target="_top" xlink:title="close the chip">
<polygon fill="white" stroke="#666666" points="266,-1238 184.75,-1238 184.75,-1218 266,-1218 266,-1238"/>
<text xml:space="preserve" text-anchor="middle" x="225.38" y="-1224.5" font-family="Helvetica,sans-Serif" font-size="10.00">hdc2080_deinit</text>
</a>
</g>
</g>
<!-- Node1&#45;&gt;Node2 -->
<g id="edge1_Node000001_Node000002" class="edge">
<title>Node1&#45;&gt;Node2</title>
<g id="a_edge1_Node000001_Node000002"><a xlink:title=" ">
<path fill="none" stroke="#63b8ff" d="M48.33,-653.4C48.22,-723.31 51.09,-1124.77 130.75,-1209 141.66,-1220.54 157.51,-1226.1 173.08,-1228.55"/>
<polygon fill="#63b8ff" stroke="#63b8ff" points="172.45,-1232 182.78,-1229.65 173.24,-1225.05 172.45,-1232"/>
</a>
</g>
</g>
<!-- Node3 -->
<g id="Node000003" class="node">
<title>Node3</title>
<g id="a_Node000003"><a xlink:href="group__hdc2080__basic__driver.html#gabca4762ee2aa923e382a1661640b5ae9" target="_top" xlink:title="convert the humidity to the register raw data">
<polygon fill="white" stroke="#666666" points="291.5,-1200 159.25,-1200 159.25,-1168 291.5,-1168 291.5,-1200"/>
<text xml:space="preserve" text-anchor="start" x="167.25" y="-1186.5" font-family="Helvetica,sans-Serif" font-size="10.00">hdc2080_humidity_convert</text>
<text xml:space="preserve" text-anchor="middle" x="225.38" y="-1174.5" font-family="Helvetica,sans-Serif" font-size="10.00">_to_register</text>
</a>
</g>
</g>
<!-- Node1&#45;&gt;Node3 -->
<g id="edge2_Node000001_Node000003" class="edge">
<title>Node1&#45;&gt;Node3</title>
<g id="a_edge2_Node000001_Node000003"><a xlink:title=" ">
<path fill="none" stroke="#63b8ff" d="M48.54,-653.27C49.83,-719.01 60.1,-1080.7 130.75,-1159 135.82,-1164.62 142.01,-1169.04 148.75,-1172.5"/>
<polygon fill="#63b8ff" stroke="#63b8ff" points="147.02,-1175.57 157.59,-1176.32 149.8,-1169.14 147.02,-1175.57"/>
</a>
</g>
</g>
<!-- Node4 -->
<g id="Node000004" class="node">
<title>Node4</title>
<g id="a_Node000004"><a xlink:href="group__hdc2080__basic__driver.html#ga2bc0deeaa37c204c06c60b8cccaca717" target="_top" xlink:title="convert the humidity offset to the register raw data">
<polygon fill="white" stroke="#666666" points="287.38,-1150 163.38,-1150 163.38,-1118 287.38,-1118 287.38,-1150"/>
<text xml:space="preserve" text-anchor="start" x="171.38" y="-1136.5" font-family="Helvetica,sans-Serif" font-size="10.00">hdc2080_humidity_offset</text>
<text xml:space="preserve" text-anchor="middle" x="225.38" y="-1124.5" font-family="Helvetica,sans-Serif" font-size="10.00">_convert_to_register</text>
</a>
</g>
</g>
<!-- Node1&#45;&gt;Node4 -->
<g id="edge3_Node000001_Node000004" class="edge">
<title>Node1&#45;&gt;Node4</title>
<g id="a_edge3_Node000001_Node000004"><a xlink:title=" ">
<path fill="none" stroke="#63b8ff" d="M48.74,-653.46C51.15,-715.92 66.6,-1039.08 130.75,-1109 136.75,-1115.54 144.25,-1120.44 152.38,-1124.11"/>
<polygon fill="#63b8ff" stroke="#63b8ff" points="150.94,-1127.31 161.53,-1127.59 153.42,-1120.76 150.94,-1127.31"/>
</a>
</g>
</g>
<!-- Node5 -->
<g id="Node000005" class="node">
<title>Node5</title>
<g id="a_Node000005"><a xlink:href="group__hdc2080__basic__driver.html#ga09d3d6fbd5678c478353bec317321549" target="_top" xlink:title="initialize the chip">
<polygon fill="white" stroke="#666666" points="260.75,-1100 190,-1100 190,-1080 260.75,-1080 260.75,-1100"/>
<text xml:space="preserve" text-anchor="middle" x="225.38" y="-1086.5" font-family="Helvetica,sans-Serif" font-size="10.00">hdc2080_init</text>
</a>
</g>
</g>
<!-- Node1&#45;&gt;Node5 -->
<g id="edge4_Node000001_Node000005" class="edge">
<title>Node1&#45;&gt;Node5</title>
<g id="a_edge4_Node000001_Node000005"><a xlink:title=" ">
<path fill="none" stroke="#63b8ff" d="M48.86,-653.43C51.82,-712.96 69.53,-1009.16 130.75,-1071 143.19,-1083.57 161.52,-1088.96 178.66,-1090.98"/>
<polygon fill="#63b8ff" stroke="#63b8ff" points="177.93,-1094.43 188.17,-1091.74 178.48,-1087.45 177.93,-1094.43"/>
</a>
</g>
</g>
<!-- Node6 -->
<g id="Node000006" class="node">
<title>Node6</title>
<g id="a_Node000006"><a xlink:href="group__hdc2080__interface__driver.html#gabab830e9787f1f8d15ace2275c4ea2d1" target="_top" xlink:title="interface print format data">
<polygon fill="white" stroke="#666666" points="288.88,-1062 161.88,-1062 161.88,-1030 288.88,-1030 288.88,-1062"/>
<text xml:space="preserve" text-anchor="start" x="169.88" y="-1048.5" font-family="Helvetica,sans-Serif" font-size="10.00">hdc2080_interface_debug</text>
<text xml:space="preserve" text-anchor="middle" x="225.38" y="-1036.5" font-family="Helvetica,sans-Serif" font-size="10.00">_print</text>
</a>
</g>
</g>
<!-- Node1&#45;&gt;Node6 -->
<g id="edge5_Node000001_Node000006" class="edge">
<title>Node1&#45;&gt;Node6</title>
<g id="a_edge5_Node000001_Node000006"><a xlink:title=" ">
<path fill="none" stroke="#63b8ff" d="M49.19,-653.23C53.74,-707.92 77.76,-965.5 130.75,-1021 136.5,-1027.02 143.53,-1031.65 151.12,-1035.2"/>
<polygon fill="#63b8ff" stroke="#63b8ff" points="149.77,-1038.43 160.36,-1038.84 152.34,-1031.92 149.77,-1038.43"/>
</a>
</g>
</g>
<!-- Node7 -->
<g id="Node000007" class="node">
<title>Node7</title>
<g id="a_Node000007"><a xlink:href="group__hdc2080__interface__driver.html#ga26945853e58ff175bf91ec1850a95377" target="_top" xlink:title="interface delay ms">
<polygon fill="white" stroke="#666666" points="296.75,-1012 154,-1012 154,-992 296.75,-992 296.75,-1012"/>
<text xml:space="preserve" text-anchor="middle" x="225.38" y="-998.5" font-family="Helvetica,sans-Serif" font-size="10.00">hdc2080_interface_delay_ms</text>
</a>
</g>
</g>
<!-- Node1&#45;&gt;Node7 -->
<g id="edge6_Node000001_Node000007" class="edge">
<title>Node1&#45;&gt;Node7</title>
<g id="a_edge6_Node000001_Node000007"><a xlink:title=" ">
<path fill="none" stroke="#63b8ff" d="M49.4,-653.26C54.73,-704.83 81.1,-935.18 130.75,-983 134.48,-986.59 138.69,-989.59 143.21,-992.09"/>
<polygon fill="#63b8ff" stroke="#63b8ff" points="141.61,-995.2 152.16,-996.16 144.51,-988.83 141.61,-995.2"/>
</a>
</g>
</g>
<!-- Node8 -->
<g id="Node000008" class="node">
<title>Node8</title>
<g id="a_Node000008"><a xlink:href="group__hdc2080__interface__driver.html#ga5afcad81dedea779c0eb1549ed85a57a" target="_top" xlink:title="interface iic bus deinit">
<polygon fill="white" stroke="#666666" points="280.62,-974 170.12,-974 170.12,-942 280.62,-942 280.62,-974"/>
<text xml:space="preserve" text-anchor="start" x="178.12" y="-960.5" font-family="Helvetica,sans-Serif" font-size="10.00">hdc2080_interface_iic</text>
<text xml:space="preserve" text-anchor="middle" x="225.38" y="-948.5" font-family="Helvetica,sans-Serif" font-size="10.00">_deinit</text>
</a>
</g>
</g>
<!-- Node1&#45;&gt;Node8 -->
<g id="edge7_Node000001_Node000008" class="edge">
<title>Node1&#45;&gt;Node8</title>
<g id="a_edge7_Node000001_Node000008"><a xlink:title=" ">
<path fill="none" stroke="#63b8ff" d="M47.95,-653.23C46.82,-694.69 48.31,-851.86 130.75,-933 138.58,-940.71 148.51,-946.11 158.96,-949.88"/>
<polygon fill="#63b8ff" stroke="#63b8ff" points="157.93,-953.23 168.52,-952.81 159.98,-946.53 157.93,-953.23"/>
</a>
</g>
</g>
<!-- Node9 -->
<g id="Node000009" class="node">
<title>Node9</title>
<g id="a_Node000009"><a xlink:href="group__hdc2080__interface__driver.html#ga5203f3cde2fba6c48decc5a9d5845225" target="_top" xlink:title="interface iic bus init">
<polygon fill="white" stroke="#666666" points="289.62,-924 161.12,-924 161.12,-904 289.62,-904 289.62,-924"/>
<text xml:space="preserve" text-anchor="middle" x="225.38" y="-910.5" font-family="Helvetica,sans-Serif" font-size="10.00">hdc2080_interface_iic_init</text>
</a>
</g>
</g>
<!-- Node1&#45;&gt;Node9 -->
<g id="edge8_Node000001_Node000009" class="edge">
<title>Node1&#45;&gt;Node9</title>
<g id="a_edge8_Node000001_Node000009"><a xlink:title=" ">
<path fill="none" stroke="#63b8ff" d="M48.32,-653.33C48.74,-691.83 55.64,-828.12 130.75,-895 136.41,-900.04 143.03,-903.89 150.09,-906.8"/>
<polygon fill="#63b8ff" stroke="#63b8ff" points="148.66,-910.01 159.25,-909.95 150.93,-903.39 148.66,-910.01"/>
</a>
</g>
</g>
<!-- Node10 -->
<g id="Node000010" class="node">
<title>Node10</title>
<g id="a_Node000010"><a xlink:href="group__hdc2080__interface__driver.html#gaa6ad667b87cf54175708096ef112b487" target="_top" xlink:title="interface iic bus read">
<polygon fill="white" stroke="#666666" points="292.62,-886 158.12,-886 158.12,-866 292.62,-866 292.62,-886"/>
<text xml:space="preserve" text-anchor="middle" x="225.38" y="-872.5" font-family="Helvetica,sans-Serif" font-size="10.00">hdc2080_interface_iic_read</text>
</a>
</g>
</g>
<!-- Node1&#45;&gt;Node10 -->
<g id="edge9_Node000001_Node000010" class="edge">
<title>Node1&#45;&gt;Node10</title>
<g id="a_edge9_Node000001_Node000010"><a xlink:title=" ">
<path fill="none" stroke="#63b8ff" d="M49.01,-653.46C51.71,-688.36 65.38,-801.74 130.75,-857 135.78,-861.25 141.5,-864.64 147.58,-867.34"/>
<polygon fill="#63b8ff" stroke="#63b8ff" points="146.08,-870.51 156.68,-870.71 148.52,-863.95 146.08,-870.51"/>
</a>
</g>
</g>
<!-- Node11 -->
<g id="Node000011" class="node">
<title>Node11</title>
<g id="a_Node000011"><a xlink:href="group__hdc2080__interface__driver.html#ga1144e490957047980198de96fd706f65" target="_top" xlink:title="interface iic bus write">
<polygon fill="white" stroke="#666666" points="280.62,-848 170.12,-848 170.12,-816 280.62,-816 280.62,-848"/>
<text xml:space="preserve" text-anchor="start" x="178.12" y="-834.5" font-family="Helvetica,sans-Serif" font-size="10.00">hdc2080_interface_iic</text>
<text xml:space="preserve" text-anchor="middle" x="225.38" y="-822.5" font-family="Helvetica,sans-Serif" font-size="10.00">_write</text>
</a>
</g>
</g>
<!-- Node1&#45;&gt;Node11 -->
<g id="edge10_Node000001_Node000011" class="edge">
<title>Node1&#45;&gt;Node11</title>
<g id="a_edge10_Node000001_Node000011"><a xlink:title=" ">
<path fill="none" stroke="#63b8ff" d="M50.46,-653.3C56.88,-682.26 79.1,-764.97 130.75,-807 138.98,-813.7 148.84,-818.62 159.03,-822.22"/>
<polygon fill="#63b8ff" stroke="#63b8ff" points="157.67,-825.46 168.26,-825.07 159.74,-818.78 157.67,-825.46"/>
</a>
</g>
</g>
<!-- Node12 -->
<g id="Node000012" class="node">
<title>Node12</title>
<g id="a_Node000012"><a xlink:href="group__hdc2080__basic__driver.html#ga75e7c5fa9a7d42089ce880263c89b040" target="_top" xlink:title="set the iic address pin">
<polygon fill="white" stroke="#666666" points="282.12,-798 168.62,-798 168.62,-778 282.12,-778 282.12,-798"/>
<text xml:space="preserve" text-anchor="middle" x="225.38" y="-784.5" font-family="Helvetica,sans-Serif" font-size="10.00">hdc2080_set_addr_pin</text>
</a>
</g>
</g>
<!-- Node1&#45;&gt;Node12 -->
<g id="edge11_Node000001_Node000012" class="edge">
<title>Node1&#45;&gt;Node12</title>
<g id="a_edge11_Node000001_Node000012"><a xlink:title=" ">
<path fill="none" stroke="#63b8ff" d="M51.99,-653.5C61.03,-678.05 87.06,-739.37 130.75,-769 138.74,-774.42 147.94,-778.36 157.38,-781.21"/>
<polygon fill="#63b8ff" stroke="#63b8ff" points="156.5,-784.59 167.06,-783.7 158.25,-777.81 156.5,-784.59"/>
</a>
</g>
</g>
<!-- Node13 -->
<g id="Node000013" class="node">
<title>Node13</title>
<g id="a_Node000013"><a xlink:href="group__hdc2080__basic__driver.html#ga1750e125f2f21f58c18a260222313c5f" target="_top" xlink:title="set auto measurement mode">
<polygon fill="white" stroke="#666666" points="320,-760 130.75,-760 130.75,-740 320,-740 320,-760"/>
<text xml:space="preserve" text-anchor="middle" x="225.38" y="-746.5" font-family="Helvetica,sans-Serif" font-size="10.00">hdc2080_set_auto_measurement_mode</text>
</a>
</g>
</g>
<!-- Node1&#45;&gt;Node13 -->
<g id="edge12_Node000001_Node000013" class="edge">
<title>Node1&#45;&gt;Node13</title>
<g id="a_edge12_Node000001_Node000013"><a xlink:title=" ">
<path fill="none" stroke="#63b8ff" d="M54.86,-653.37C67.17,-672.12 95.85,-711.51 130.75,-731 133.77,-732.68 136.91,-734.22 140.14,-735.62"/>
<polygon fill="#63b8ff" stroke="#63b8ff" points="138.71,-738.82 149.3,-739.11 141.21,-732.28 138.71,-738.82"/>
</a>
</g>
</g>
<!-- Node14 -->
<g id="Node000014" class="node">
<title>Node14</title>
<g id="a_Node000014"><a xlink:href="group__hdc2080__basic__driver.html#gabc86c36cf62d3fefe8c1a11dd66c8bd6" target="_top" xlink:title="enable or disable heater">
<polygon fill="white" stroke="#666666" points="277.25,-722 173.5,-722 173.5,-702 277.25,-702 277.25,-722"/>
<text xml:space="preserve" text-anchor="middle" x="225.38" y="-708.5" font-family="Helvetica,sans-Serif" font-size="10.00">hdc2080_set_heater</text>
</a>
</g>
</g>
<!-- Node1&#45;&gt;Node14 -->
<g id="edge13_Node000001_Node000014" class="edge">
<title>Node1&#45;&gt;Node14</title>
<g id="a_edge13_Node000001_Node000014"><a xlink:title=" ">
<path fill="none" stroke="#63b8ff" d="M62.17,-653.44C77.93,-664.86 104.89,-682.88 130.75,-693 140.72,-696.9 151.62,-700.04 162.34,-702.56"/>
<polygon fill="#63b8ff" stroke="#63b8ff" points="161.41,-705.94 171.93,-704.64 162.9,-699.1 161.41,-705.94"/>
</a>
</g>
</g>
<!-- Node15 -->
<g id="Node000015" class="node">
<title>Node15</title>
<g id="a_Node000015"><a xlink:href="group__hdc2080__basic__driver.html#ga81146d21c97ef1b8435ab3c44f13e4d2" target="_top" xlink:title="set humidity high threshold">
<polygon fill="white" stroke="#666666" points="282.12,-684 168.62,-684 168.62,-652 282.12,-652 282.12,-684"/>
<text xml:space="preserve" text-anchor="start" x="176.62" y="-670.5" font-family="Helvetica,sans-Serif" font-size="10.00">hdc2080_set_humidity</text>
<text xml:space="preserve" text-anchor="middle" x="225.38" y="-658.5" font-family="Helvetica,sans-Serif" font-size="10.00">_high_threshold</text>
</a>
</g>
</g>
<!-- Node1&#45;&gt;Node15 -->
<g id="edge14_Node000001_Node000015" class="edge">
<title>Node1&#45;&gt;Node15</title>
<g id="a_edge14_Node000001_Node000015"><a xlink:title=" ">
<path fill="none" stroke="#63b8ff" d="M95.08,-649.63C114.07,-652.33 136.37,-655.5 157.06,-658.44"/>
<polygon fill="#63b8ff" stroke="#63b8ff" points="156.47,-661.89 166.86,-659.83 157.45,-654.96 156.47,-661.89"/>
</a>
</g>
</g>
<!-- Node16 -->
<g id="Node000016" class="node">
<title>Node16</title>
<g id="a_Node000016"><a xlink:href="group__hdc2080__basic__driver.html#ga69e564e50962366a576405265299aa92" target="_top" xlink:title="set humidity low threshold">
<polygon fill="white" stroke="#666666" points="282.12,-634 168.62,-634 168.62,-602 282.12,-602 282.12,-634"/>
<text xml:space="preserve" text-anchor="start" x="176.62" y="-620.5" font-family="Helvetica,sans-Serif" font-size="10.00">hdc2080_set_humidity</text>
<text xml:space="preserve" text-anchor="middle" x="225.38" y="-608.5" font-family="Helvetica,sans-Serif" font-size="10.00">_low_threshold</text>
</a>
</g>
</g>
<!-- Node1&#45;&gt;Node16 -->
<g id="edge15_Node000001_Node000016" class="edge">
<title>Node1&#45;&gt;Node16</title>
<g id="a_edge15_Node000001_Node000016"><a xlink:title=" ">
<path fill="none" stroke="#63b8ff" d="M95.08,-636.37C114.07,-633.67 136.37,-630.5 157.06,-627.56"/>
<polygon fill="#63b8ff" stroke="#63b8ff" points="157.45,-631.04 166.86,-626.17 156.47,-624.11 157.45,-631.04"/>
</a>
</g>
</g>
<!-- Node17 -->
<g id="Node000017" class="node">
<title>Node17</title>
<g id="a_Node000017"><a xlink:href="group__hdc2080__basic__driver.html#gab5541feed29084fa6d64c37a1d009d9f" target="_top" xlink:title="set humidity offset adjustment">
<polygon fill="white" stroke="#666666" points="282.12,-584 168.62,-584 168.62,-552 282.12,-552 282.12,-584"/>
<text xml:space="preserve" text-anchor="start" x="176.62" y="-570.5" font-family="Helvetica,sans-Serif" font-size="10.00">hdc2080_set_humidity</text>
<text xml:space="preserve" text-anchor="middle" x="225.38" y="-558.5" font-family="Helvetica,sans-Serif" font-size="10.00">_offset_adjustment</text>
</a>
</g>
</g>
<!-- Node1&#45;&gt;Node17 -->
<g id="edge16_Node000001_Node000017" class="edge">
<title>Node1&#45;&gt;Node17</title>
<g id="a_edge16_Node000001_Node000017"><a xlink:title=" ">
<path fill="none" stroke="#63b8ff" d="M62.58,-632.64C78.48,-621.47 105.36,-603.83 130.75,-593 139.31,-589.35 148.55,-586.1 157.77,-583.27"/>
<polygon fill="#63b8ff" stroke="#63b8ff" points="158.47,-586.71 167.09,-580.54 156.51,-579.99 158.47,-586.71"/>
</a>
</g>
</g>
<!-- Node18 -->
<g id="Node000018" class="node">
<title>Node18</title>
<g id="a_Node000018"><a xlink:href="group__hdc2080__basic__driver.html#ga1d19340c651aaaca4609c37ecdcb519b" target="_top" xlink:title="set humidity resolution">
<polygon fill="white" stroke="#666666" points="282.12,-534 168.62,-534 168.62,-502 282.12,-502 282.12,-534"/>
<text xml:space="preserve" text-anchor="start" x="176.62" y="-520.5" font-family="Helvetica,sans-Serif" font-size="10.00">hdc2080_set_humidity</text>
<text xml:space="preserve" text-anchor="middle" x="225.38" y="-508.5" font-family="Helvetica,sans-Serif" font-size="10.00">_resolution</text>
</a>
</g>
</g>
<!-- Node1&#45;&gt;Node18 -->
<g id="edge17_Node000001_Node000018" class="edge">
<title>Node1&#45;&gt;Node18</title>
<g id="a_edge17_Node000001_Node000018"><a xlink:title=" ">
<path fill="none" stroke="#63b8ff" d="M53.89,-632.71C65.37,-612.32 93.85,-566.72 130.75,-543 138.98,-537.71 148.29,-533.54 157.78,-530.24"/>
<polygon fill="#63b8ff" stroke="#63b8ff" points="158.58,-533.66 167.07,-527.33 156.48,-526.98 158.58,-533.66"/>
</a>
</g>
</g>
<!-- Node19 -->
<g id="Node000019" class="node">
<title>Node19</title>
<g id="a_Node000019"><a xlink:href="group__hdc2080__basic__driver.html#gac894344d237d1ba9de4ce3ad3d427f0b" target="_top" xlink:title="enable or disable interrupt">
<polygon fill="white" stroke="#666666" points="281.38,-484 169.38,-484 169.38,-464 281.38,-464 281.38,-484"/>
<text xml:space="preserve" text-anchor="middle" x="225.38" y="-470.5" font-family="Helvetica,sans-Serif" font-size="10.00">hdc2080_set_interrupt</text>
</a>
</g>
</g>
<!-- Node1&#45;&gt;Node19 -->
<g id="edge18_Node000001_Node000019" class="edge">
<title>Node1&#45;&gt;Node19</title>
<g id="a_edge18_Node000001_Node000019"><a xlink:title=" ">
<path fill="none" stroke="#63b8ff" d="M50.83,-632.62C57.93,-605.03 81.22,-529.45 130.75,-493 138.81,-487.07 148.26,-482.88 158.01,-479.94"/>
<polygon fill="#63b8ff" stroke="#63b8ff" points="158.79,-483.36 167.62,-477.5 157.06,-476.57 158.79,-483.36"/>
</a>
</g>
</g>
<!-- Node20 -->
<g id="Node000020" class="node">
<title>Node20</title>
<g id="a_Node000020"><a xlink:href="group__hdc2080__basic__driver.html#gaad6881354e61db9a588e81c5eabd999c" target="_top" xlink:title="set interrupt mode">
<polygon fill="white" stroke="#666666" points="296,-446 154.75,-446 154.75,-426 296,-426 296,-446"/>
<text xml:space="preserve" text-anchor="middle" x="225.38" y="-432.5" font-family="Helvetica,sans-Serif" font-size="10.00">hdc2080_set_interrupt_mode</text>
</a>
</g>
</g>
<!-- Node1&#45;&gt;Node20 -->
<g id="edge19_Node000001_Node000020" class="edge">
<title>Node1&#45;&gt;Node20</title>
<g id="a_edge19_Node000001_Node000020"><a xlink:title=" ">
<path fill="none" stroke="#63b8ff" d="M49.57,-632.9C53.88,-601.16 71.68,-502.67 130.75,-455 134.78,-451.75 139.22,-449.01 143.91,-446.7"/>
<polygon fill="#63b8ff" stroke="#63b8ff" points="145.21,-449.95 153.11,-442.89 142.53,-443.48 145.21,-449.95"/>
</a>
</g>
</g>
<!-- Node21 -->
<g id="Node000021" class="node">
<title>Node21</title>
<g id="a_Node000021"><a xlink:href="group__hdc2080__basic__driver.html#ga43cf40868c82ba934f6ec8c801ccc51f" target="_top" xlink:title="enable or disable interrupt pin">
<polygon fill="white" stroke="#666666" points="290.38,-408 160.38,-408 160.38,-388 290.38,-388 290.38,-408"/>
<text xml:space="preserve" text-anchor="middle" x="225.38" y="-394.5" font-family="Helvetica,sans-Serif" font-size="10.00">hdc2080_set_interrupt_pin</text>
</a>
</g>
</g>
<!-- Node1&#45;&gt;Node21 -->
<g id="edge20_Node000001_Node000021" class="edge">
<title>Node1&#45;&gt;Node21</title>
<g id="a_edge20_Node000001_Node000021"><a xlink:title=" ">
<path fill="none" stroke="#63b8ff" d="M48.75,-632.98C50.64,-597.4 62.07,-476.12 130.75,-417 136.19,-412.31 142.48,-408.67 149.16,-405.85"/>
<polygon fill="#63b8ff" stroke="#63b8ff" points="150.22,-409.18 158.49,-402.56 147.9,-402.58 150.22,-409.18"/>
</a>
</g>
</g>
<!-- Node22 -->
<g id="Node000022" class="node">
<title>Node22</title>
<g id="a_Node000022"><a xlink:href="group__hdc2080__basic__driver.html#gaac4a7f20425165eb8fbff00410862461" target="_top" xlink:title="set interrupt polarity">
<polygon fill="white" stroke="#666666" points="281.38,-370 169.38,-370 169.38,-338 281.38,-338 281.38,-370"/>
<text xml:space="preserve" text-anchor="start" x="177.38" y="-356.5" font-family="Helvetica,sans-Serif" font-size="10.00">hdc2080_set_interrupt</text>
<text xml:space="preserve" text-anchor="middle" x="225.38" y="-344.5" font-family="Helvetica,sans-Serif" font-size="10.00">_polarity</text>
</a>
</g>
</g>
<!-- Node1&#45;&gt;Node22 -->
<g id="edge21_Node000001_Node000022" class="edge">
<title>Node1&#45;&gt;Node22</title>
<g id="a_edge21_Node000001_Node000022"><a xlink:title=" ">
<path fill="none" stroke="#63b8ff" d="M48.28,-632.61C48.53,-593.24 54.87,-451.79 130.75,-379 138.5,-371.57 148.2,-366.29 158.41,-362.55"/>
<polygon fill="#63b8ff" stroke="#63b8ff" points="159.22,-365.96 167.72,-359.63 157.13,-359.28 159.22,-365.96"/>
</a>
</g>
</g>
<!-- Node23 -->
<g id="Node000023" class="node">
<title>Node23</title>
<g id="a_Node000023"><a xlink:href="group__hdc2080__basic__driver.html#ga7f99a32992bed17349ae7466b8f8a440" target="_top" xlink:title="set the chip mode">
<polygon fill="white" stroke="#666666" points="275.75,-320 175,-320 175,-300 275.75,-300 275.75,-320"/>
<text xml:space="preserve" text-anchor="middle" x="225.38" y="-306.5" font-family="Helvetica,sans-Serif" font-size="10.00">hdc2080_set_mode</text>
</a>
</g>
</g>
<!-- Node1&#45;&gt;Node23 -->
<g id="edge22_Node000001_Node000023" class="edge">
<title>Node1&#45;&gt;Node23</title>
<g id="a_edge22_Node000001_Node000023"><a xlink:title=" ">
<path fill="none" stroke="#63b8ff" d="M49.64,-632.55C55.83,-583.04 84.57,-372.65 130.75,-329 139.79,-320.45 151.58,-315.28 163.72,-312.25"/>
<polygon fill="#63b8ff" stroke="#63b8ff" points="164.3,-315.7 173.42,-310.32 162.93,-308.83 164.3,-315.7"/>
</a>
</g>
</g>
<!-- Node24 -->
<g id="Node000024" class="node">
<title>Node24</title>
<g id="a_Node000024"><a xlink:href="group__hdc2080__basic__driver.html#gae9ffbbd24025b0d17dead63e5b43d803" target="_top" xlink:title="set temperature high threshold">
<polygon fill="white" stroke="#666666" points="289.62,-282 161.12,-282 161.12,-250 289.62,-250 289.62,-282"/>
<text xml:space="preserve" text-anchor="start" x="169.12" y="-268.5" font-family="Helvetica,sans-Serif" font-size="10.00">hdc2080_set_temperature</text>
<text xml:space="preserve" text-anchor="middle" x="225.38" y="-256.5" font-family="Helvetica,sans-Serif" font-size="10.00">_high_threshold</text>
</a>
</g>
</g>
<!-- Node1&#45;&gt;Node24 -->
<g id="edge23_Node000001_Node000024" class="edge">
<title>Node1&#45;&gt;Node24</title>
<g id="a_edge23_Node000001_Node000024"><a xlink:title=" ">
<path fill="none" stroke="#63b8ff" d="M49.36,-632.79C54.63,-580.4 81.06,-342.26 130.75,-291 136.39,-285.19 143.21,-280.68 150.58,-277.18"/>
<polygon fill="#63b8ff" stroke="#63b8ff" points="151.53,-280.57 159.5,-273.59 148.92,-274.08 151.53,-280.57"/>
</a>
</g>
</g>
<!-- Node25 -->
<g id="Node000025" class="node">
<title>Node25</title>
<g id="a_Node000025"><a xlink:href="group__hdc2080__basic__driver.html#ga0fde92039b1e5d39bb0f41fdf777ca8a" target="_top" xlink:title="set temperature low threshold">
<polygon fill="white" stroke="#666666" points="289.62,-232 161.12,-232 161.12,-200 289.62,-200 289.62,-232"/>
<text xml:space="preserve" text-anchor="start" x="169.12" y="-218.5" font-family="Helvetica,sans-Serif" font-size="10.00">hdc2080_set_temperature</text>
<text xml:space="preserve" text-anchor="middle" x="225.38" y="-206.5" font-family="Helvetica,sans-Serif" font-size="10.00">_low_threshold</text>
</a>
</g>
</g>
<!-- Node1&#45;&gt;Node25 -->
<g id="edge24_Node000001_Node000025" class="edge">
<title>Node1&#45;&gt;Node25</title>
<g id="a_edge24_Node000001_Node000025"><a xlink:title=" ">
<path fill="none" stroke="#63b8ff" d="M49.06,-632.51C53.03,-575.19 74.79,-300.35 130.75,-241 136.3,-235.11 143.08,-230.55 150.42,-227.03"/>
<polygon fill="#63b8ff" stroke="#63b8ff" points="151.37,-230.42 159.31,-223.41 148.73,-223.94 151.37,-230.42"/>
</a>
</g>
</g>
<!-- Node26 -->
<g id="Node000026" class="node">
<title>Node26</title>
<g id="a_Node000026"><a xlink:href="group__hdc2080__basic__driver.html#ga0f274c83f0e7ac68111bc91de55be0a4" target="_top" xlink:title="set temperature offset adjustment">
<polygon fill="white" stroke="#666666" points="289.62,-182 161.12,-182 161.12,-150 289.62,-150 289.62,-182"/>
<text xml:space="preserve" text-anchor="start" x="169.12" y="-168.5" font-family="Helvetica,sans-Serif" font-size="10.00">hdc2080_set_temperature</text>
<text xml:space="preserve" text-anchor="middle" x="225.38" y="-156.5" font-family="Helvetica,sans-Serif" font-size="10.00">_offset_adjustment</text>
</a>
</g>
</g>
<!-- Node1&#45;&gt;Node26 -->
<g id="edge25_Node000001_Node000026" class="edge">
<title>Node1&#45;&gt;Node26</title>
<g id="a_edge25_Node000001_Node000026"><a xlink:title=" ">
<path fill="none" stroke="#63b8ff" d="M48.79,-632.85C51.48,-572.26 68.29,-258.72 130.75,-191 136.32,-184.96 143.17,-180.32 150.6,-176.76"/>
<polygon fill="#63b8ff" stroke="#63b8ff" points="151.68,-180.1 159.65,-173.11 149.06,-173.61 151.68,-180.1"/>
</a>
</g>
</g>
<!-- Node27 -->
<g id="Node000027" class="node">
<title>Node27</title>
<g id="a_Node000027"><a xlink:href="group__hdc2080__basic__driver.html#ga2db73b4f9c0efdf23e903657b7cfa3fc" target="_top" xlink:title="set temperature resolution">
<polygon fill="white" stroke="#666666" points="289.62,-132 161.12,-132 161.12,-100 289.62,-100 289.62,-132"/>
<text xml:space="preserve" text-anchor="start" x="169.12" y="-118.5" font-family="Helvetica,sans-Serif" font-size="10.00">hdc2080_set_temperature</text>
<text xml:space="preserve" text-anchor="middle" x="225.38" y="-106.5" font-family="Helvetica,sans-Serif" font-size="10.00">_resolution</text>
</a>
</g>
</g>
<!-- Node1&#45;&gt;Node27 -->
<g id="edge26_Node000001_Node000027" class="edge">
<title>Node1&#45;&gt;Node27</title>
<g id="a_edge26_Node000001_Node000027"><a xlink:title=" ">
<path fill="none" stroke="#63b8ff" d="M48.6,-632.59C50.2,-567.52 61.95,-216.91 130.75,-141 136.26,-134.91 143.08,-130.24 150.5,-126.66"/>
<polygon fill="#63b8ff" stroke="#63b8ff" points="151.57,-130 159.52,-123 148.94,-123.52 151.57,-130"/>
</a>
</g>
</g>
<!-- Node28 -->
<g id="Node000028" class="node">
<title>Node28</title>
<g id="a_Node000028"><a xlink:href="group__hdc2080__basic__driver.html#gad62502afbce65dc2fe3d024aee4e7ffa" target="_top" xlink:title="convert the temperature to the register raw data">
<polygon fill="white" stroke="#666666" points="280.25,-82 170.5,-82 170.5,-50 280.25,-50 280.25,-82"/>
<text xml:space="preserve" text-anchor="start" x="178.5" y="-68.5" font-family="Helvetica,sans-Serif" font-size="10.00">hdc2080_temperature</text>
<text xml:space="preserve" text-anchor="middle" x="225.38" y="-56.5" font-family="Helvetica,sans-Serif" font-size="10.00">_convert_to_register</text>
</a>
</g>
</g>
<!-- Node1&#45;&gt;Node28 -->
<g id="edge27_Node000001_Node000028" class="edge">
<title>Node1&#45;&gt;Node28</title>
<g id="a_edge27_Node000001_Node000028"><a xlink:title=" ">
<path fill="none" stroke="#63b8ff" d="M48.43,-632.91C48.97,-565.06 55.4,-175.37 130.75,-91 138.31,-82.53 148.4,-76.79 159.15,-72.93"/>
<polygon fill="#63b8ff" stroke="#63b8ff" points="160.03,-76.32 168.6,-70.09 158.02,-69.61 160.03,-76.32"/>
</a>
</g>
</g>
<!-- Node29 -->
<g id="Node000029" class="node">
<title>Node29</title>
<g id="a_Node000029"><a xlink:href="group__hdc2080__basic__driver.html#ga339704b9488ed6525827bcd46b283faf" target="_top" xlink:title="convert the temperature offset to the register raw data">
<polygon fill="white" stroke="#666666" points="292.25,-32 158.5,-32 158.5,0 292.25,0 292.25,-32"/>
<text xml:space="preserve" text-anchor="start" x="166.5" y="-18.5" font-family="Helvetica,sans-Serif" font-size="10.00">hdc2080_temperature</text>
<text xml:space="preserve" text-anchor="middle" x="225.38" y="-6.5" font-family="Helvetica,sans-Serif" font-size="10.00">_offset_convert_to_register</text>
</a>
</g>
</g>
<!-- Node1&#45;&gt;Node29 -->
<g id="edge28_Node000001_Node000029" class="edge">
<title>Node1&#45;&gt;Node29</title>
<g id="a_edge28_Node000001_Node000029"><a xlink:title=" ">
<path fill="none" stroke="#63b8ff" d="M48.29,-632.94C47.89,-561.71 48.92,-133.75 130.75,-41 135.57,-35.54 141.44,-31.2 147.87,-27.78"/>
<polygon fill="#63b8ff" stroke="#63b8ff" points="149.26,-30.99 156.97,-23.73 146.41,-24.6 149.26,-30.99"/>
</a>
</g>
</g>
</g>
</svg>
